<?xml version="1.0" encoding="UTF-8" standalone="no"?>
<!-- Created with Inkscape (http://www.inkscape.org/) -->

<svg
   version="1.1"
   id="svg2"
   width="886.74664"
   height="532.54669"
   viewBox="0 0 886.74664 532.54669"
   sodipodi:docname="5861839.svg"
   inkscape:version="1.2.2 (b0a8486541, 2022-12-01)"
   xmlns:inkscape="http://www.inkscape.org/namespaces/inkscape"
   xmlns:sodipodi="http://sodipodi.sourceforge.net/DTD/sodipodi-0.dtd"
   xmlns:xlink="http://www.w3.org/1999/xlink"
   xmlns="http://www.w3.org/2000/svg"
   xmlns:svg="http://www.w3.org/2000/svg">
  <defs
     id="defs6">
    <linearGradient
       inkscape:collect="always"
       id="linearGradient11512">
      <stop
         style="stop-color:#ffcb56;stop-opacity:1;"
         offset="0"
         id="stop11510" />
      <stop
         style="stop-color:#ff4d00;stop-opacity:1;"
         offset="1"
         id="stop11508" />
    </linearGradient>
    <linearGradient
       inkscape:collect="always"
       id="linearGradient6643">
      <stop
         style="stop-color:#ffcb56;stop-opacity:1;"
         offset="0"
         id="stop6641" />
      <stop
         style="stop-color:#ff5606;stop-opacity:1;"
         offset="1"
         id="stop6639" />
    </linearGradient>
    <linearGradient
       inkscape:collect="always"
       id="linearGradient2692">
      <stop
         style="stop-color:#ffcb56;stop-opacity:1;"
         offset="0"
         id="stop2690" />
      <stop
         style="stop-color:#ff4d00;stop-opacity:1;"
         offset="1"
         id="stop2688" />
    </linearGradient>
    <linearGradient
       inkscape:collect="always"
       xlink:href="#linearGradient2692"
       id="linearGradient2694"
       x1="2666.61"
       y1="3643.71"
       x2="6453.94"
       y2="3643.71"
       gradientUnits="userSpaceOnUse" />
    <linearGradient
       inkscape:collect="always"
       xlink:href="#linearGradient6643"
       id="linearGradient6645"
       x1="2901.51"
       y1="3293.5365"
       x2="6219.03"
       y2="3293.5365"
       gradientUnits="userSpaceOnUse" />
    <linearGradient
       inkscape:collect="always"
       xlink:href="#linearGradient11512"
       id="linearGradient11514"
       x1="2666.61"
       y1="2053.455"
       x2="6453.94"
       y2="2053.455"
       gradientUnits="userSpaceOnUse" />
  </defs>
  <sodipodi:namedview
     id="namedview4"
     pagecolor="#ffffff"
     bordercolor="#000000"
     borderopacity="0.25"
     inkscape:showpageshadow="2"
     inkscape:pageopacity="0.0"
     inkscape:pagecheckerboard="0"
     inkscape:deskcolor="#d1d1d1"
     showgrid="false"
     inkscape:zoom="5.2792677"
     inkscape:cx="155.70341"
     inkscape:cy="295.87437"
     inkscape:window-width="1366"
     inkscape:window-height="668"
     inkscape:window-x="0"
     inkscape:window-y="32"
     inkscape:window-maximized="1"
     inkscape:current-layer="g12">
    <inkscape:page
       x="0"
       y="0"
       id="page8"
       width="886.74664"
       height="532.54669"
       inkscape:export-filename="intro-section-illustration2.png"
       inkscape:export-xdpi="75.782639"
       inkscape:export-ydpi="75.782639" />
  </sodipodi:namedview>
  <g
     id="g10"
     inkscape:groupmode="layer"
     inkscape:label="Page 1"
     transform="matrix(1.3333333,0,0,-1.3333333,0,532.54667)">
    <g
       id="g12"
       transform="scale(0.1)">
      <path
         d="m 6500.18,1435.28 -1.43,56.54 c -0.45,18.63 -1.12,37.05 -1.3,55.36 l 2.72,-2.73 c -44.13,-0.51 -88.26,-1.59 -132.4,-1.64 l -132.4,-0.62 4.99,4.99 -0.54,-111.9 -4.45,4.46 c 21.82,-0.18 43.58,-0.08 65.46,-0.55 l 65.79,-1.12 z m 0,0 -131.25,-2.78 -66.61,-1.12 c -22.26,-0.48 -44.63,-0.38 -66.95,-0.56 l -4.44,-0.03 -0.02,4.49 -0.54,111.9 -0.02,5.02 5.02,-0.03 132.4,-0.62 c 44.14,-0.05 88.27,-1.13 132.4,-1.64 l 2.76,-0.03 -0.03,-2.7 c -0.18,-18.99 -0.85,-37.87 -1.31,-56.54 l -1.41,-55.36"
         style="fill:#e7e8e5;fill-opacity:1;fill-rule:nonzero;stroke:none"
         id="path14" />
      <path
         d="m 6352.46,1294.18 -1.42,56.54 c -0.45,18.63 -1.12,37.05 -1.31,55.36 l 2.73,-2.73 c -44.14,-0.51 -88.27,-1.58 -132.41,-1.63 l -132.4,-0.63 5,4.99 -0.54,-111.89 -4.46,4.45 c 21.82,-0.17 43.58,-0.08 65.46,-0.55 l 65.79,-1.12 z m 0,0 -131.25,-2.78 -66.61,-1.12 c -22.26,-0.47 -44.63,-0.38 -66.95,-0.55 l -4.43,-0.04 -0.02,4.5 -0.54,111.89 -0.03,5.02 5.02,-0.02 132.4,-0.63 c 44.14,-0.05 88.27,-1.13 132.41,-1.64 l 2.75,-0.03 -0.02,-2.7 c -0.19,-18.99 -0.86,-37.86 -1.31,-56.54 l -1.42,-55.36"
         style="fill:#e7e8e5;fill-opacity:1;fill-rule:nonzero;stroke:none"
         id="path16" />
      <path
         d="m 6647.89,1294.18 -1.42,56.54 c -0.45,18.63 -1.12,37.05 -1.31,55.36 l 2.73,-2.73 c -44.13,-0.51 -88.27,-1.58 -132.4,-1.63 l -132.4,-0.63 4.99,4.99 -0.54,-111.89 -4.45,4.45 c 21.82,-0.17 43.58,-0.08 65.45,-0.55 l 65.79,-1.12 z m 0,0 -131.25,-2.78 -66.61,-1.12 c -22.25,-0.47 -44.63,-0.38 -66.94,-0.55 l -4.44,-0.04 -0.02,4.5 -0.54,111.89 -0.02,5.02 5.02,-0.02 132.4,-0.63 c 44.13,-0.05 88.27,-1.13 132.4,-1.64 l 2.76,-0.03 -0.03,-2.7 c -0.19,-18.99 -0.86,-37.86 -1.31,-56.54 l -1.42,-55.36"
         style="fill:#e7e8e5;fill-opacity:1;fill-rule:nonzero;stroke:none"
         id="path18" />
      <path
         d="m 2724.38,2766.86 -1.42,56.53 c -0.45,18.63 -1.12,37.05 -1.31,55.36 l 2.73,-2.73 c -44.14,-0.51 -88.27,-1.58 -132.4,-1.63 l -132.41,-0.63 5,4.99 -0.54,-111.89 -4.46,4.45 c 21.82,-0.17 43.58,-0.08 65.46,-0.55 l 65.79,-1.12 z m 0,0 -131.25,-2.79 -66.61,-1.12 c -22.26,-0.47 -44.63,-0.38 -66.95,-0.55 l -4.43,-0.04 -0.02,4.5 -0.54,111.89 -0.03,5.02 5.02,-0.02 132.41,-0.63 c 44.13,-0.05 88.26,-1.13 132.4,-1.64 l 2.75,-0.03 -0.02,-2.7 c -0.19,-18.98 -0.86,-37.86 -1.31,-56.53 l -1.42,-55.36"
         style="fill:#e7e8e5;fill-opacity:1;fill-rule:nonzero;stroke:none"
         id="path20" />
      <path
         d="m 2576.66,2625.76 -1.42,56.53 c -0.45,18.63 -1.12,37.05 -1.31,55.36 l 2.73,-2.72 c -44.13,-0.52 -88.27,-1.59 -132.4,-1.64 l -132.4,-0.63 4.99,4.99 -0.54,-111.89 -4.45,4.45 c 21.81,-0.17 43.57,-0.07 65.45,-0.55 l 65.79,-1.12 z m 0,0 -131.25,-2.79 -66.61,-1.12 c -22.25,-0.47 -44.63,-0.37 -66.94,-0.55 l -4.44,-0.03 -0.02,4.49 -0.54,111.89 -0.02,5.02 5.02,-0.02 132.4,-0.63 c 44.13,-0.05 88.27,-1.12 132.4,-1.64 l 2.76,-0.03 -0.03,-2.7 c -0.19,-18.98 -0.86,-37.86 -1.31,-56.53 l -1.42,-55.36"
         style="fill:#e7e8e5;fill-opacity:1;fill-rule:nonzero;stroke:none"
         id="path22" />
      <path
         d="m 2872.1,2625.76 -1.42,56.53 c -0.46,18.63 -1.13,37.05 -1.31,55.36 l 2.72,-2.72 c -44.13,-0.52 -88.26,-1.59 -132.4,-1.64 l -132.4,-0.63 4.99,4.99 -0.53,-111.89 -4.46,4.45 c 21.82,-0.17 43.58,-0.07 65.46,-0.55 l 65.79,-1.12 z m 0,0 -131.25,-2.79 -66.61,-1.12 c -22.26,-0.47 -44.63,-0.37 -66.95,-0.55 l -4.44,-0.03 -0.02,4.49 -0.53,111.89 -0.03,5.02 5.02,-0.02 132.4,-0.63 c 44.14,-0.05 88.27,-1.12 132.4,-1.64 l 2.76,-0.03 -0.03,-2.7 c -0.18,-18.98 -0.85,-37.86 -1.3,-56.53 l -1.42,-55.36"
         style="fill:#e7e8e5;fill-opacity:1;fill-rule:nonzero;stroke:none"
         id="path24" />
      <path
         d="M 565.258,2026.46 563.84,2083 c -0.453,18.62 -1.125,37.04 -1.313,55.36 l 2.731,-2.73 c -44.137,-0.51 -88.27,-1.59 -132.403,-1.64 l -132.402,-0.63 4.992,5 -0.535,-111.9 -4.457,4.46 c 21.82,-0.18 43.578,-0.08 65.457,-0.55 l 65.793,-1.12 z m 0,0 -131.246,-2.79 -66.614,-1.12 c -22.253,-0.47 -44.628,-0.37 -66.945,-0.55 l -4.433,-0.03 -0.024,4.49 -0.535,111.9 -0.027,5.01 5.019,-0.02 132.402,-0.63 c 44.133,-0.05 88.266,-1.12 132.403,-1.63 l 2.758,-0.04 -0.028,-2.69 c -0.187,-18.99 -0.859,-37.87 -1.308,-56.54 l -1.422,-55.36"
         style="fill:#e7e8e5;fill-opacity:1;fill-rule:nonzero;stroke:none"
         id="path26" />
      <path
         d="m 4955.08,2766.94 -1.42,56.53 c -0.46,18.63 -1.13,37.05 -1.31,55.36 l 2.72,-2.73 c -44.13,-0.51 -88.26,-1.58 -132.4,-1.63 l -132.4,-0.63 4.99,4.99 -0.53,-111.89 -4.46,4.45 c 21.82,-0.17 43.58,-0.08 65.46,-0.55 l 65.79,-1.12 z m 0,0 -131.25,-2.79 -66.61,-1.12 c -22.26,-0.47 -44.63,-0.38 -66.95,-0.55 l -4.44,-0.04 -0.02,4.5 -0.54,111.89 -0.02,5.02 5.02,-0.02 132.4,-0.63 c 44.14,-0.05 88.27,-1.13 132.4,-1.64 l 2.76,-0.03 -0.03,-2.7 c -0.18,-18.98 -0.85,-37.86 -1.3,-56.53 l -1.42,-55.36"
         style="fill:#e7e8e5;fill-opacity:1;fill-rule:nonzero;stroke:none"
         id="path28" />
      <path
         d="m 6484.86,3853.73 -1.42,56.54 c -0.45,18.62 -1.12,37.05 -1.31,55.36 l 2.73,-2.73 c -44.13,-0.51 -88.27,-1.59 -132.4,-1.64 l -132.4,-0.63 4.99,5 -0.54,-111.9 -4.45,4.46 c 21.81,-0.18 43.57,-0.08 65.45,-0.55 l 65.79,-1.12 z m 0,0 -131.25,-2.79 -66.61,-1.12 c -22.25,-0.47 -44.63,-0.37 -66.94,-0.55 l -4.44,-0.03 -0.02,4.49 -0.54,111.9 -0.02,5.01 5.02,-0.02 132.4,-0.62 c 44.13,-0.05 88.27,-1.13 132.4,-1.64 l 2.76,-0.04 -0.03,-2.69 c -0.19,-18.99 -0.86,-37.87 -1.31,-56.54 l -1.42,-55.36"
         style="fill:#e7e8e5;fill-opacity:1;fill-rule:nonzero;stroke:none"
         id="path30" />
      <path
         d="m 6632.58,3712.63 -1.42,56.54 c -0.45,18.63 -1.12,37.05 -1.31,55.36 l 2.73,-2.73 c -44.14,-0.51 -88.27,-1.59 -132.4,-1.64 l -132.41,-0.62 5,4.99 -0.54,-111.9 -4.46,4.46 c 21.82,-0.18 43.58,-0.08 65.46,-0.55 l 65.79,-1.12 z m 0,0 -131.25,-2.79 -66.61,-1.11 c -22.26,-0.48 -44.63,-0.38 -66.95,-0.55 l -4.43,-0.04 -0.03,4.49 -0.53,111.9 -0.03,5.02 5.02,-0.03 132.41,-0.63 c 44.13,-0.04 88.26,-1.12 132.4,-1.63 l 2.75,-0.03 -0.02,-2.7 c -0.19,-18.99 -0.86,-37.87 -1.31,-56.54 l -1.42,-55.36"
         style="fill:#e7e8e5;fill-opacity:1;fill-rule:nonzero;stroke:none"
         id="path32" />
      <path
         d="m 269.824,3853.61 -1.422,56.54 c -0.449,18.62 -1.121,37.05 -1.308,55.36 l 2.73,-2.73 c -44.136,-0.51 -88.269,-1.59 -132.402,-1.64 l -132.40247,-0.62 4.99217,4.99 -0.53514,-111.9 -4.45703,4.46 c 21.81637,-0.18 43.57817,-0.08 65.45707,-0.55 l 65.7894,-1.12 z m 0,0 -131.25,-2.79 -66.6092,-1.12 c -22.2539,-0.47 -44.6289,-0.37 -66.94527,-0.55 L 0.582031,3849.12 0.5625,3853.61 0.0234375,3965.51 0,3970.53 5.01953,3970.5 137.422,3969.88 c 44.133,-0.06 88.266,-1.13 132.402,-1.64 l 2.754,-0.03 -0.023,-2.7 c -0.188,-18.99 -0.86,-37.87 -1.313,-56.54 l -1.418,-55.36"
         style="fill:#e7e8e5;fill-opacity:1;fill-rule:nonzero;stroke:none"
         id="path34" />
      <path
         d="m 6398.15,2749.84 c -44.52,-23.88 -99.92,-7.16 -123.8,37.36 -23.87,44.53 -7.19,100 37.33,123.88 44.52,23.88 100.04,7.12 123.92,-37.4 23.88,-44.52 7.07,-99.97 -37.45,-123.84 z m 94.52,-70.49 58.87,94.91 -29.07,18.01 c -8.55,5.29 -13.18,14.96 -12.32,24.98 0.47,5.53 0.65,11.11 0.53,16.69 -0.22,10.03 5.02,19.36 13.85,24.1 l 30.13,16.16 -52.8,98.45 -30.13,-16.16 c -8.83,-4.74 -19.51,-3.94 -27.74,1.79 -4.58,3.19 -9.32,6.13 -14.2,8.8 -8.82,4.83 -14.3,14.04 -13.99,24.08 l 1.09,34.18 -111.63,3.47 -1.04,-34.3 c -0.3,-10.06 -6.46,-18.81 -15.56,-23.11 -2.47,-1.16 -4.92,-2.4 -7.35,-3.7 -2.42,-1.3 -4.8,-2.65 -7.14,-4.07 -8.57,-5.17 -19.22,-5.48 -27.73,-0.2 l -29.28,18.13 -58.87,-94.9 29.12,-18.07 c 8.55,-5.31 13.17,-14.99 12.3,-25 -0.48,-5.52 -0.66,-11.07 -0.54,-16.63 0.2,-10.02 -5.03,-19.34 -13.86,-24.07 l -30.14,-16.17 52.8,-98.45 30.14,16.16 c 8.83,4.74 19.49,3.94 27.72,-1.77 4.57,-3.18 9.29,-6.1 14.15,-8.75 8.83,-4.82 14.33,-14.02 14.02,-24.08 l -1.05,-34.25 111.62,-3.47 1.07,34.27 c 0.31,10.03 6.45,18.74 15.52,23.03 2.48,1.17 4.95,2.41 7.4,3.73 2.43,1.3 4.81,2.65 7.15,4.07 8.61,5.2 19.31,5.5 27.87,0.19 l 29.09,-18.05"
         style="fill:#e7e8e5;fill-opacity:1;fill-rule:nonzero;stroke:none"
         id="path36" />
      <path
         d="m 1073.72,663.531 c 0,-35.39 -28.67,-64.062 -64.06,-64.062 -35.394,0 -64.125,28.672 -64.125,64.062 0,35.391 28.731,64.117 64.125,64.117 35.39,0 64.06,-28.726 64.06,-64.117 z m 74.8,35.008 -39.1,67.77 -20.74,-11.981 c -6.1,-3.527 -13.6,-3.187 -19.5,0.66 -3.26,2.133 -6.64,4.082 -10.13,5.852 -6.26,3.191 -10.29,9.512 -10.29,16.539 v 23.949 h -78.268 v -23.949 c 0,-7.027 -4.027,-13.348 -10.289,-16.539 -3.488,-1.77 -6.871,-3.719 -10.133,-5.852 -5.898,-3.847 -13.398,-4.187 -19.5,-0.66 l -20.742,11.981 -39.101,-67.77 20.836,-11.988 c 6.105,-3.52 9.468,-10.223 9.109,-17.262 -0.098,-1.91 -0.149,-3.828 -0.149,-5.758 0,-1.929 0.051,-3.851 0.149,-5.761 0.359,-7.008 -2.981,-13.68 -9.055,-17.192 l -20.89,-12.066 39.101,-67.762 20.801,11.988 c 6.101,3.524 13.605,3.172 19.504,-0.687 3.25,-2.121 6.613,-4.071 10.09,-5.84 6.25,-3.191 10.269,-9.512 10.269,-16.52 V 525.73 h 78.268 v 23.961 c 0,7.008 4.02,13.329 10.27,16.52 3.47,1.769 6.84,3.719 10.09,5.84 5.9,3.859 13.4,4.211 19.5,0.687 l 20.8,-11.988 39.1,67.762 -20.8,12.008 c -6.09,3.511 -9.43,10.191 -9.08,17.21 0.1,1.911 0.15,3.848 0.15,5.801 0,1.93 -0.05,3.848 -0.15,5.758 -0.36,7.039 3,13.742 9.11,17.27 l 20.77,11.98"
         style="fill:#e7e8e5;fill-opacity:1;fill-rule:nonzero;stroke:none"
         id="path38" />
      <path
         d="m 475.441,1018.21 c -78.609,0 -142.339,63.65 -142.339,142.26 0,78.61 63.73,142.34 142.339,142.34 78.61,0 142.34,-63.73 142.34,-142.34 0,-78.61 -63.73,-142.26 -142.34,-142.26 z m 0,446.97 c -168.324,0 -304.711,-136.38 -304.711,-304.71 0,-168.251 136.387,-304.708 304.711,-304.708 168.25,0 304.711,136.457 304.711,304.708 0,168.33 -136.461,304.71 -304.711,304.71"
         style="fill:#e7e8e5;fill-opacity:1;fill-rule:nonzero;stroke:none"
         id="path40" />
      <path
         d="M 534.027,1452.55 H 416.848 l 6.476,82.95 h 104.227 l 6.476,-82.95"
         style="fill:#e7e8e5;fill-opacity:1;fill-rule:nonzero;stroke:none"
         id="path42" />
      <path
         d="m 310.992,1413.07 -82.859,-82.86 -54.07,63.24 73.695,73.69 63.234,-54.07"
         style="fill:#e7e8e5;fill-opacity:1;fill-rule:nonzero;stroke:none"
         id="path44" />
      <path
         d="m 181.199,1227.44 v -117.18 l -82.949,6.48 v 104.23 l 82.949,6.47"
         style="fill:#e7e8e5;fill-opacity:1;fill-rule:nonzero;stroke:none"
         id="path46" />
      <path
         d="m 220.68,1004.41 82.855,-82.859 -63.23,-54.071 -73.7,73.692 54.075,63.238"
         style="fill:#e7e8e5;fill-opacity:1;fill-rule:nonzero;stroke:none"
         id="path48" />
      <path
         d="m 406.305,874.609 h 117.179 l -6.476,-82.937 H 412.785 l -6.48,82.937"
         style="fill:#e7e8e5;fill-opacity:1;fill-rule:nonzero;stroke:none"
         id="path50" />
      <path
         d="m 629.344,914.102 82.855,82.847 54.074,-63.23 -73.699,-73.699 -63.23,54.082"
         style="fill:#e7e8e5;fill-opacity:1;fill-rule:nonzero;stroke:none"
         id="path52" />
      <path
         d="m 759.137,1099.72 v 117.18 l 82.945,-6.48 V 1106.2 l -82.945,-6.48"
         style="fill:#e7e8e5;fill-opacity:1;fill-rule:nonzero;stroke:none"
         id="path54" />
      <path
         d="m 719.656,1322.76 -82.859,82.86 63.23,54.07 73.7,-73.7 -54.071,-63.23"
         style="fill:#e7e8e5;fill-opacity:1;fill-rule:nonzero;stroke:none"
         id="path56" />
      <path
         d="m 515.148,3297.4 c 0,12.49 1.661,45.79 1.661,59.94 0,60.8 -21.649,88.29 -78.27,89.95 -26.652,1.66 -42.469,17.48 -42.469,39.96 0,22.49 15.817,38.31 42.469,39.97 56.621,2.49 78.27,29.15 78.27,90.78 0,14.14 -1.661,47.45 -1.661,59.94 0,80.78 34.137,132.41 163.207,160.72 25.809,5.83 45.797,-10 45.797,-34.14 0,-19.99 -13.32,-30.82 -23.316,-34.14 -80.766,-24.98 -92.438,-50.8 -92.438,-107.42 0,-16.66 1.68,-44.14 1.68,-61.63 0,-64.95 -31.644,-96.59 -86.617,-114.08 55.805,-18.31 86.617,-49.12 86.617,-114.07 0,-17.5 -1.68,-44.97 -1.68,-61.63 0,-56.62 11.672,-82.44 92.438,-107.42 9.996,-3.33 23.316,-14.15 23.316,-34.14 0,-24.16 -19.988,-39.97 -45.797,-34.15 -129.07,28.32 -163.207,79.95 -163.207,161.56"
         style="fill:#e7e8e5;fill-opacity:1;fill-rule:nonzero;stroke:none"
         id="path58" />
      <path
         d="m 1003.11,3677.94 c 0,-12.49 -1.66,-45.8 -1.66,-59.94 0,-61.63 22.48,-88.29 79.12,-90.78 25.8,-1.66 41.63,-17.48 41.63,-39.97 0,-22.48 -15.83,-38.3 -41.63,-39.96 -56.64,-1.66 -79.12,-29.15 -79.12,-89.95 0,-14.15 1.66,-47.45 1.66,-59.94 0,-81.61 -34.137,-133.24 -163.208,-161.56 -25.808,-5.82 -45.797,9.99 -45.797,34.15 0,19.99 13.321,30.81 24.145,34.14 79.949,24.98 91.609,50.8 91.609,107.42 0,16.66 -1.668,44.13 -1.668,61.63 0,64.95 31.649,96.59 86.606,114.07 -55.805,18.32 -86.606,49.13 -86.606,114.08 0,17.49 1.668,44.97 1.668,61.63 0,56.62 -11.66,82.44 -91.609,107.42 -10.824,3.32 -24.145,14.15 -24.145,34.14 0,24.14 19.989,39.97 45.797,34.14 129.071,-28.31 163.208,-79.94 163.208,-160.72"
         style="fill:#e7e8e5;fill-opacity:1;fill-rule:nonzero;stroke:none"
         id="path60" />
      <path
         d="m 83.6523,4.98828 810.6997,2.4336 810.698,0.8789 1621.41,1.67969 1621.4,-1.67188 810.7,-0.8789 810.7,-2.44141 -810.7,-2.44922 -810.7,-0.8789 L 3326.46,0 1705.05,1.67188 894.352,2.55859 83.6523,4.98828"
         style="fill:#17282f;fill-opacity:1;fill-rule:nonzero;stroke:none"
         id="path62" />
      <path
         d="M 6075.36,4.98828 H 577.551 V 205.23 H 6075.36 V 4.98828"
         style="fill:#bebfbd;fill-opacity:1;fill-rule:nonzero;stroke:none"
         id="path64" />
      <path
         d="M 1145.63,205.23 H 5507.28 V 3122.85 H 1145.63 Z"
         style="fill:#d4d6d3;fill-opacity:1;fill-rule:nonzero;stroke:none"
         id="path66" />
      <path
         d="M 1177.33,240.82 H 5475.58 V 3087.27 H 1177.33 Z"
         style="fill:#17282f;fill-opacity:1;fill-rule:nonzero;stroke:none"
         id="path68" />
      <path
         d="m 1367.66,423.789 h 3917.59 v 2480.51 H 1367.66 Z"
         style="fill:#1f0098;fill-opacity:1;fill-rule:nonzero;stroke:none"
         id="path70" />
      <path
         d="M 2207.68,423.789 H 1367.66 V 2808.85 h 840.02 V 423.789"
         style="fill:#273e47;fill-opacity:1;fill-rule:nonzero;stroke:none"
         id="path72" />
      <path
         d="m 1457.51,423.789 h -89.85 V 2808.85 h 89.85 V 423.789"
         style="fill:#33535f;fill-opacity:1;fill-rule:nonzero;stroke:none"
         id="path74" />
      <path
         d="m 2207.68,1957.62 h -750.17 v 35.5 h 750.17 v -35.5"
         style="fill:#ffcb56;fill-opacity:1;fill-rule:nonzero;stroke:none"
         id="path76" />
      <path
         d="m 1832.78,2674.6 h -291.67 v 15.86 h 291.67 v -15.86"
         style="fill:#ffffff;fill-opacity:1;fill-rule:nonzero;stroke:none"
         id="path78" />
      <path
         d="m 1503.87,2687.58 h 18.8 l -9.4,-10.09 z"
         style="fill:#ffffff;fill-opacity:1;fill-rule:nonzero;stroke:none"
         id="path80" />
      <path
         d="m 1603.26,2615.7 h -38.66 v 15.86 h 38.66 v -15.86"
         style="fill:#ffffff;fill-opacity:1;fill-rule:nonzero;stroke:none"
         id="path82" />
      <path
         d="m 1541.11,2614.23 v 18.8 l 10.09,-9.4 z"
         style="fill:#ffffff;fill-opacity:1;fill-rule:nonzero;stroke:none"
         id="path84" />
      <path
         d="m 1603.26,2556.79 h -38.66 v 15.86 h 38.66 v -15.86"
         style="fill:#ffffff;fill-opacity:1;fill-rule:nonzero;stroke:none"
         id="path86" />
      <path
         d="m 1536.75,2569.76 h 18.8 l -9.4,-10.08 z"
         style="fill:#ffffff;fill-opacity:1;fill-rule:nonzero;stroke:none"
         id="path88" />
      <path
         d="m 1603.26,2497.88 h -38.66 v 15.86 h 38.66 v -15.86"
         style="fill:#ffffff;fill-opacity:1;fill-rule:nonzero;stroke:none"
         id="path90" />
      <path
         d="m 1536.75,2510.86 h 18.8 l -9.4,-10.09 z"
         style="fill:#ffffff;fill-opacity:1;fill-rule:nonzero;stroke:none"
         id="path92" />
      <path
         d="m 1626.75,2438.98 h -38.66 v 15.87 h 38.66 v -15.87"
         style="fill:#ffffff;fill-opacity:1;fill-rule:nonzero;stroke:none"
         id="path94" />
      <path
         d="m 1564.6,2437.52 v 18.79 l 10.09,-9.39 z"
         style="fill:#ffffff;fill-opacity:1;fill-rule:nonzero;stroke:none"
         id="path96" />
      <path
         d="m 1650.24,2379.99 h -38.66 v 15.86 h 38.66 v -15.86"
         style="fill:#ffffff;fill-opacity:1;fill-rule:nonzero;stroke:none"
         id="path98" />
      <path
         d="m 1588.09,2378.52 v 18.8 l 10.09,-9.4 z"
         style="fill:#ffffff;fill-opacity:1;fill-rule:nonzero;stroke:none"
         id="path100" />
      <path
         d="m 1650.24,1791 h -38.66 v 15.86 h 38.66 V 1791"
         style="fill:#ffffff;fill-opacity:1;fill-rule:nonzero;stroke:none"
         id="path102" />
      <path
         d="m 1588.09,1789.53 v 18.8 l 10.09,-9.4 z"
         style="fill:#ffffff;fill-opacity:1;fill-rule:nonzero;stroke:none"
         id="path104" />
      <path
         d="m 1673.73,2321.19 h -38.66 v 15.86 h 38.66 v -15.86"
         style="fill:#ffffff;fill-opacity:1;fill-rule:nonzero;stroke:none"
         id="path106" />
      <path
         d="m 1611.58,2319.72 v 18.8 l 10.09,-9.4 z"
         style="fill:#ffffff;fill-opacity:1;fill-rule:nonzero;stroke:none"
         id="path108" />
      <path
         d="m 1673.73,1849.91 h -38.66 v 15.86 h 38.66 v -15.86"
         style="fill:#ffffff;fill-opacity:1;fill-rule:nonzero;stroke:none"
         id="path110" />
      <path
         d="m 1611.58,1848.44 v 18.8 l 10.09,-9.4 z"
         style="fill:#ffffff;fill-opacity:1;fill-rule:nonzero;stroke:none"
         id="path112" />
      <path
         d="m 1697.22,2262.3 h -38.66 v 15.86 h 38.66 v -15.86"
         style="fill:#ffffff;fill-opacity:1;fill-rule:nonzero;stroke:none"
         id="path114" />
      <path
         d="m 1635.07,2260.83 v 18.8 l 10.09,-9.4 z"
         style="fill:#ffffff;fill-opacity:1;fill-rule:nonzero;stroke:none"
         id="path116" />
      <path
         d="m 1697.22,1908.82 h -38.66 v 15.86 h 38.66 v -15.86"
         style="fill:#ffffff;fill-opacity:1;fill-rule:nonzero;stroke:none"
         id="path118" />
      <path
         d="m 1635.07,1907.35 v 18.8 l 10.09,-9.4 z"
         style="fill:#ffffff;fill-opacity:1;fill-rule:nonzero;stroke:none"
         id="path120" />
      <path
         d="m 1720.71,2203.31 h -38.66 v 15.86 h 38.66 v -15.86"
         style="fill:#ffffff;fill-opacity:1;fill-rule:nonzero;stroke:none"
         id="path122" />
      <path
         d="m 1658.56,2201.84 v 18.8 l 10.09,-9.4 z"
         style="fill:#ffffff;fill-opacity:1;fill-rule:nonzero;stroke:none"
         id="path124" />
      <path
         d="m 1725.07,2144.44 h -38.66 v 15.86 h 38.66 v -15.86"
         style="fill:#ffffff;fill-opacity:1;fill-rule:nonzero;stroke:none"
         id="path126" />
      <path
         d="m 1658.56,2157.42 h 18.8 l -9.4,-10.09 z"
         style="fill:#ffffff;fill-opacity:1;fill-rule:nonzero;stroke:none"
         id="path128" />
      <path
         d="m 1725.07,2085.54 h -38.66 v 15.86 h 38.66 v -15.86"
         style="fill:#ffffff;fill-opacity:1;fill-rule:nonzero;stroke:none"
         id="path130" />
      <path
         d="m 1658.56,2098.51 h 18.8 l -9.4,-10.09 z"
         style="fill:#ffffff;fill-opacity:1;fill-rule:nonzero;stroke:none"
         id="path132" />
      <path
         d="m 1725.07,2026.63 h -38.66 v 15.86 h 38.66 v -15.86"
         style="fill:#ffffff;fill-opacity:1;fill-rule:nonzero;stroke:none"
         id="path134" />
      <path
         d="m 1658.56,2039.6 h 18.8 l -9.4,-10.08 z"
         style="fill:#ffffff;fill-opacity:1;fill-rule:nonzero;stroke:none"
         id="path136" />
      <path
         d="m 1725.07,1967.72 h -38.66 v 15.86 h 38.66 v -15.86"
         style="fill:#ffffff;fill-opacity:1;fill-rule:nonzero;stroke:none"
         id="path138" />
      <path
         d="m 1658.56,1980.7 h 18.8 l -9.4,-10.09 z"
         style="fill:#ffffff;fill-opacity:1;fill-rule:nonzero;stroke:none"
         id="path140" />
      <path
         d="m 1603.26,1732.05 h -38.66 v 15.86 h 38.66 v -15.86"
         style="fill:#ffffff;fill-opacity:1;fill-rule:nonzero;stroke:none"
         id="path142" />
      <path
         d="m 1541.11,1730.58 v 18.8 l 10.09,-9.4 z"
         style="fill:#ffffff;fill-opacity:1;fill-rule:nonzero;stroke:none"
         id="path144" />
      <path
         d="m 1603.26,1673.14 h -38.66 v 15.87 h 38.66 v -15.87"
         style="fill:#ffffff;fill-opacity:1;fill-rule:nonzero;stroke:none"
         id="path146" />
      <path
         d="m 1536.75,1686.12 h 18.8 l -9.4,-10.09 z"
         style="fill:#ffffff;fill-opacity:1;fill-rule:nonzero;stroke:none"
         id="path148" />
      <path
         d="m 1603.26,1614.24 h -38.66 v 15.86 h 38.66 v -15.86"
         style="fill:#ffffff;fill-opacity:1;fill-rule:nonzero;stroke:none"
         id="path150" />
      <path
         d="m 1536.75,1627.21 h 18.8 l -9.4,-10.09 z"
         style="fill:#ffffff;fill-opacity:1;fill-rule:nonzero;stroke:none"
         id="path152" />
      <path
         d="m 1626.75,1555.34 h -38.66 v 15.86 h 38.66 v -15.86"
         style="fill:#ffffff;fill-opacity:1;fill-rule:nonzero;stroke:none"
         id="path154" />
      <path
         d="m 1564.6,1553.87 v 18.8 l 10.09,-9.4 z"
         style="fill:#ffffff;fill-opacity:1;fill-rule:nonzero;stroke:none"
         id="path156" />
      <path
         d="m 1650.24,1496.35 h -38.66 v 15.86 h 38.66 v -15.86"
         style="fill:#ffffff;fill-opacity:1;fill-rule:nonzero;stroke:none"
         id="path158" />
      <path
         d="m 1588.09,1494.88 v 18.8 l 10.09,-9.4 z"
         style="fill:#ffffff;fill-opacity:1;fill-rule:nonzero;stroke:none"
         id="path160" />
      <path
         d="m 1650.24,1437.43 h -38.66 v 15.86 h 38.66 v -15.86"
         style="fill:#ffffff;fill-opacity:1;fill-rule:nonzero;stroke:none"
         id="path162" />
      <path
         d="m 1588.09,1435.96 v 18.8 l 10.09,-9.4 z"
         style="fill:#ffffff;fill-opacity:1;fill-rule:nonzero;stroke:none"
         id="path164" />
      <path
         d="m 1654.6,1378.56 h -38.66 v 15.87 h 38.66 v -15.87"
         style="fill:#ffffff;fill-opacity:1;fill-rule:nonzero;stroke:none"
         id="path166" />
      <path
         d="m 1588.09,1391.54 h 18.8 l -9.4,-10.09 z"
         style="fill:#ffffff;fill-opacity:1;fill-rule:nonzero;stroke:none"
         id="path168" />
      <path
         d="m 1654.6,1319.66 h -38.66 v 15.86 h 38.66 v -15.86"
         style="fill:#ffffff;fill-opacity:1;fill-rule:nonzero;stroke:none"
         id="path170" />
      <path
         d="m 1588.09,1332.63 h 18.8 l -9.4,-10.09 z"
         style="fill:#ffffff;fill-opacity:1;fill-rule:nonzero;stroke:none"
         id="path172" />
      <path
         d="m 1654.6,1260.75 h -38.66 v 15.86 h 38.66 v -15.86"
         style="fill:#ffffff;fill-opacity:1;fill-rule:nonzero;stroke:none"
         id="path174" />
      <path
         d="m 1588.09,1273.73 h 18.8 l -9.4,-10.09 z"
         style="fill:#ffffff;fill-opacity:1;fill-rule:nonzero;stroke:none"
         id="path176" />
      <path
         d="m 1654.6,1201.84 h -38.66 v 15.87 h 38.66 v -15.87"
         style="fill:#ffffff;fill-opacity:1;fill-rule:nonzero;stroke:none"
         id="path178" />
      <path
         d="m 1588.09,1214.82 h 18.8 l -9.4,-10.09 z"
         style="fill:#ffffff;fill-opacity:1;fill-rule:nonzero;stroke:none"
         id="path180" />
      <path
         d="m 1367.66,2808.85 h 3917.59 v 95.4492 H 1367.66 Z"
         style="fill:#ffcb56;fill-opacity:1;fill-rule:nonzero;stroke:none"
         id="path182" />
      <path
         d="m 1457.51,2856.57 c 0,-9.97 -8.08,-18.06 -18.06,-18.06 -9.97,0 -18.06,8.09 -18.06,18.06 0,9.98 8.09,18.06 18.06,18.06 9.98,0 18.06,-8.08 18.06,-18.06"
         style="fill:#bebfbd;fill-opacity:1;fill-rule:nonzero;stroke:none"
         id="path184" />
      <path
         d="m 1531.26,2856.57 c 0,-9.97 -8.09,-18.06 -18.06,-18.06 -9.98,0 -18.06,8.09 -18.06,18.06 0,9.98 8.08,18.06 18.06,18.06 9.97,0 18.06,-8.08 18.06,-18.06"
         style="fill:#ffffff;fill-opacity:1;fill-rule:nonzero;stroke:none"
         id="path186" />
      <path
         d="m 1605.01,2856.57 c 0,-9.97 -8.09,-18.06 -18.06,-18.06 -9.98,0 -18.06,8.09 -18.06,18.06 0,9.98 8.08,18.06 18.06,18.06 9.97,0 18.06,-8.08 18.06,-18.06"
         style="fill:#33535f;fill-opacity:1;fill-rule:nonzero;stroke:none"
         id="path188" />
      <path
         d="m 2475.7,2367.43 h -70.68 v 17.34 h 70.68 v -17.34"
         style="fill:#e7e8e5;fill-opacity:1;fill-rule:nonzero;stroke:none"
         id="path190" />
      <path
         d="M 4125.81,2367.43 H 2559.1 v 17.34 h 1566.71 v -17.34"
         style="fill:#e7e8e5;fill-opacity:1;fill-rule:nonzero;stroke:none"
         id="path192" />
      <path
         d="m 4169.24,2367.43 h 134.25 v 17.3398 h -134.25 z"
         style="fill:#fabb1e;fill-opacity:1;fill-rule:nonzero;stroke:none"
         id="path194" />
      <path
         d="m 4837.22,1957.62 h -453.13 v 17.35 h 453.13 v -17.35"
         style="fill:#e7e8e5;fill-opacity:1;fill-rule:nonzero;stroke:none"
         id="path196" />
      <path
         d="m 4332.67,2367.43 h 665.199 v 17.3398 H 4332.67 Z"
         style="fill:#999b9b;fill-opacity:1;fill-rule:nonzero;stroke:none"
         id="path198" />
      <path
         d="m 2475.7,2285.46 h -70.68 v 17.35 h 70.68 v -17.35"
         style="fill:#e7e8e5;fill-opacity:1;fill-rule:nonzero;stroke:none"
         id="path200" />
      <path
         d="m 3160.06,2285.46 h -532.05 v 17.35 h 532.05 v -17.35"
         style="fill:#999b9b;fill-opacity:1;fill-rule:nonzero;stroke:none"
         id="path202" />
      <path
         d="m 4352.2,1957.62 h -201.26 v 17.35 h 201.26 v -17.35"
         style="fill:#999b9b;fill-opacity:1;fill-rule:nonzero;stroke:none"
         id="path204" />
      <path
         d="m 3067.3,2039.58 h -508.2 v 17.35 h 508.2 v -17.35"
         style="fill:#999b9b;fill-opacity:1;fill-rule:nonzero;stroke:none"
         id="path206" />
      <path
         d="m 2984.52,2203.5 h -356.51 v 17.35 h 356.51 v -17.35"
         style="fill:#fe4c1c;fill-opacity:1;fill-rule:nonzero;stroke:none"
         id="path208" />
      <path
         d="m 4934.41,2121.54 h -675.39 v 17.35 h 675.39 v -17.35"
         style="fill:#999b9b;fill-opacity:1;fill-rule:nonzero;stroke:none"
         id="path210" />
      <path
         d="m 4125.81,1719.28 h -675.39 v 17.35 h 675.39 v -17.35"
         style="fill:#999b9b;fill-opacity:1;fill-rule:nonzero;stroke:none"
         id="path212" />
      <path
         d="m 4349.38,2203.5 h -1325.3 v 17.35 h 1325.3 v -17.35"
         style="fill:#999b9b;fill-opacity:1;fill-rule:nonzero;stroke:none"
         id="path214" />
      <path
         d="M 4104.94,1957.62 H 2559.1 v 17.35 h 1545.84 v -17.35"
         style="fill:#fe4c1c;fill-opacity:1;fill-rule:nonzero;stroke:none"
         id="path216" />
      <path
         d="M 4288.52,2285.46 H 3193.47 v 17.35 h 1095.05 v -17.35"
         style="fill:#e7e8e5;fill-opacity:1;fill-rule:nonzero;stroke:none"
         id="path218" />
      <path
         d="m 4635.25,2203.5 h -229.24 v 17.35 h 229.24 v -17.35"
         style="fill:#e7e8e5;fill-opacity:1;fill-rule:nonzero;stroke:none"
         id="path220" />
      <path
         d="m 2475.7,2203.5 h -70.68 v 17.35 h 70.68 v -17.35"
         style="fill:#e7e8e5;fill-opacity:1;fill-rule:nonzero;stroke:none"
         id="path222" />
      <path
         d="m 2475.7,2121.54 h -70.68 v 17.35 h 70.68 v -17.35"
         style="fill:#999b9b;fill-opacity:1;fill-rule:nonzero;stroke:none"
         id="path224" />
      <path
         d="M 2976.81,2121.54 H 2559.1 v 17.35 h 417.71 v -17.35"
         style="fill:#e7e8e5;fill-opacity:1;fill-rule:nonzero;stroke:none"
         id="path226" />
      <path
         d="m 3045.72,1875.66 h -417.71 v 17.35 h 417.71 v -17.35"
         style="fill:#e7e8e5;fill-opacity:1;fill-rule:nonzero;stroke:none"
         id="path228" />
      <path
         d="m 4746.01,1793.7 h -583.16 v 17.34 h 583.16 v -17.34"
         style="fill:#fabb1e;fill-opacity:1;fill-rule:nonzero;stroke:none"
         id="path230" />
      <path
         d="M 4126.33,1793.7 H 3005.74 v 17.34 h 1120.59 v -17.34"
         style="fill:#e7e8e5;fill-opacity:1;fill-rule:nonzero;stroke:none"
         id="path232" />
      <path
         d="m 2941.99,1793.7 h -313.98 v 17.34 h 313.98 v -17.34"
         style="fill:#999b9b;fill-opacity:1;fill-rule:nonzero;stroke:none"
         id="path234" />
      <path
         d="M 4303.49,2039.58 H 3096.05 v 17.35 h 1207.44 v -17.35"
         style="fill:#e7e8e5;fill-opacity:1;fill-rule:nonzero;stroke:none"
         id="path236" />
      <path
         d="m 5053.05,2039.58 h -720.38 v 17.35 h 720.38 v -17.35"
         style="fill:#fabb1e;fill-opacity:1;fill-rule:nonzero;stroke:none"
         id="path238" />
      <path
         d="M 4226.16,2121.54 H 3019.27 v 17.35 h 1206.89 v -17.35"
         style="fill:#fabb1e;fill-opacity:1;fill-rule:nonzero;stroke:none"
         id="path240" />
      <path
         d="m 2475.7,2039.58 h -70.68 v 17.35 h 70.68 v -17.35"
         style="fill:#e7e8e5;fill-opacity:1;fill-rule:nonzero;stroke:none"
         id="path242" />
      <path
         d="m 2475.7,1957.62 h -70.68 v 17.35 h 70.68 v -17.35"
         style="fill:#e7e8e5;fill-opacity:1;fill-rule:nonzero;stroke:none"
         id="path244" />
      <path
         d="m 2475.7,1875.66 h -70.68 v 17.35 h 70.68 v -17.35"
         style="fill:#999b9b;fill-opacity:1;fill-rule:nonzero;stroke:none"
         id="path246" />
      <path
         d="m 2475.7,1793.7 h -70.68 v 17.34 h 70.68 v -17.34"
         style="fill:#e7e8e5;fill-opacity:1;fill-rule:nonzero;stroke:none"
         id="path248" />
      <path
         d="m 2475.7,1719.28 h -70.68 v 17.35 h 70.68 v -17.35"
         style="fill:#e7e8e5;fill-opacity:1;fill-rule:nonzero;stroke:none"
         id="path250" />
      <path
         d="M 3387.84,1719.28 H 2559.1 v 17.35 h 828.74 v -17.35"
         style="fill:#e7e8e5;fill-opacity:1;fill-rule:nonzero;stroke:none"
         id="path252" />
      <path
         d="m 2475.7,1637.32 h -70.68 v 17.35 h 70.68 v -17.35"
         style="fill:#e7e8e5;fill-opacity:1;fill-rule:nonzero;stroke:none"
         id="path254" />
      <path
         d="m 3160.06,1637.32 h -532.05 v 17.35 h 532.05 v -17.35"
         style="fill:#999b9b;fill-opacity:1;fill-rule:nonzero;stroke:none"
         id="path256" />
      <path
         d="m 3067.3,1391.44 h -508.2 v 17.34 h 508.2 v -17.34"
         style="fill:#999b9b;fill-opacity:1;fill-rule:nonzero;stroke:none"
         id="path258" />
      <path
         d="m 2984.52,1555.36 h -356.51 v 17.35 h 356.51 v -17.35"
         style="fill:#fe4c1c;fill-opacity:1;fill-rule:nonzero;stroke:none"
         id="path260" />
      <path
         d="m 3800.98,1227.52 h -356.52 v 17.34 h 356.52 v -17.34"
         style="fill:#fe4c1c;fill-opacity:1;fill-rule:nonzero;stroke:none"
         id="path262" />
      <path
         d="m 2984.52,1063.6 h -356.51 v 17.34 h 356.51 v -17.34"
         style="fill:#fe4c1c;fill-opacity:1;fill-rule:nonzero;stroke:none"
         id="path264" />
      <path
         d="m 4349.38,1555.36 h -1325.3 v 17.35 h 1325.3 v -17.35"
         style="fill:#999b9b;fill-opacity:1;fill-rule:nonzero;stroke:none"
         id="path266" />
      <path
         d="M 4104.94,1309.48 H 2559.1 v 17.34 h 1545.84 v -17.34"
         style="fill:#fe4c1c;fill-opacity:1;fill-rule:nonzero;stroke:none"
         id="path268" />
      <path
         d="M 4288.52,1637.32 H 3193.47 v 17.35 h 1095.05 v -17.35"
         style="fill:#e7e8e5;fill-opacity:1;fill-rule:nonzero;stroke:none"
         id="path270" />
      <path
         d="M 4520.42,1473.4 H 4291.6 v 17.34 h 228.82 v -17.34"
         style="fill:#e7e8e5;fill-opacity:1;fill-rule:nonzero;stroke:none"
         id="path272" />
      <path
         d="m 2475.7,1555.36 h -70.68 v 17.35 h 70.68 v -17.35"
         style="fill:#e7e8e5;fill-opacity:1;fill-rule:nonzero;stroke:none"
         id="path274" />
      <path
         d="m 2475.7,1473.4 h -70.68 v 17.34 h 70.68 v -17.34"
         style="fill:#999b9b;fill-opacity:1;fill-rule:nonzero;stroke:none"
         id="path276" />
      <path
         d="M 2976.81,1473.4 H 2559.1 v 17.34 h 417.71 v -17.34"
         style="fill:#e7e8e5;fill-opacity:1;fill-rule:nonzero;stroke:none"
         id="path278" />
      <path
         d="M 4303.49,1391.44 H 3096.05 v 17.34 h 1207.44 v -17.34"
         style="fill:#e7e8e5;fill-opacity:1;fill-rule:nonzero;stroke:none"
         id="path280" />
      <path
         d="M 4226.16,1473.4 H 3019.27 v 17.34 h 1206.89 v -17.34"
         style="fill:#fabb1e;fill-opacity:1;fill-rule:nonzero;stroke:none"
         id="path282" />
      <path
         d="m 2475.7,1391.44 h -70.68 v 17.34 h 70.68 v -17.34"
         style="fill:#e7e8e5;fill-opacity:1;fill-rule:nonzero;stroke:none"
         id="path284" />
      <path
         d="m 2475.7,1227.52 h -70.68 v 17.34 h 70.68 v -17.34"
         style="fill:#e7e8e5;fill-opacity:1;fill-rule:nonzero;stroke:none"
         id="path286" />
      <path
         d="M 3387.84,1227.52 H 2559.1 v 17.34 h 828.74 v -17.34"
         style="fill:#e7e8e5;fill-opacity:1;fill-rule:nonzero;stroke:none"
         id="path288" />
      <path
         d="m 2475.7,1145.56 h -70.68 v 17.34 h 70.68 v -17.34"
         style="fill:#e7e8e5;fill-opacity:1;fill-rule:nonzero;stroke:none"
         id="path290" />
      <path
         d="m 3160.06,1145.56 h -532.05 v 17.34 h 532.05 v -17.34"
         style="fill:#999b9b;fill-opacity:1;fill-rule:nonzero;stroke:none"
         id="path292" />
      <path
         d="m 3067.3,899.668 h -508.2 v 17.352 h 508.2 v -17.352"
         style="fill:#999b9b;fill-opacity:1;fill-rule:nonzero;stroke:none"
         id="path294" />
      <path
         d="m 4349.38,1063.6 h -1325.3 v 17.34 h 1325.3 v -17.34"
         style="fill:#999b9b;fill-opacity:1;fill-rule:nonzero;stroke:none"
         id="path296" />
      <path
         d="M 4520.42,981.641 H 4291.6 v 17.339 h 228.82 v -17.339"
         style="fill:#e7e8e5;fill-opacity:1;fill-rule:nonzero;stroke:none"
         id="path298" />
      <path
         d="m 2475.7,1063.6 h -70.68 v 17.34 h 70.68 v -17.34"
         style="fill:#e7e8e5;fill-opacity:1;fill-rule:nonzero;stroke:none"
         id="path300" />
      <path
         d="m 2475.7,981.641 h -70.68 v 17.339 h 70.68 v -17.339"
         style="fill:#999b9b;fill-opacity:1;fill-rule:nonzero;stroke:none"
         id="path302" />
      <path
         d="M 2976.81,981.641 H 2559.1 v 17.339 h 417.71 v -17.339"
         style="fill:#e7e8e5;fill-opacity:1;fill-rule:nonzero;stroke:none"
         id="path304" />
      <path
         d="M 4303.49,899.668 H 3096.05 v 17.352 h 1207.44 v -17.352"
         style="fill:#e7e8e5;fill-opacity:1;fill-rule:nonzero;stroke:none"
         id="path306" />
      <path
         d="M 4226.16,981.641 H 3019.27 v 17.339 h 1206.89 v -17.339"
         style="fill:#fe4c1c;fill-opacity:1;fill-rule:nonzero;stroke:none"
         id="path308" />
      <path
         d="m 2475.7,899.668 h -70.68 v 17.352 h 70.68 v -17.352"
         style="fill:#e7e8e5;fill-opacity:1;fill-rule:nonzero;stroke:none"
         id="path310" />
      <path
         d="m 2448.68,2543.11 c 2.43,-2.52 2.43,-6.3 0,-8.73 -1.26,-1.16 -2.71,-1.74 -4.26,-1.74 -1.65,0 -3.21,0.58 -4.46,1.74 l -27.26,27.65 -0.49,0.58 -0.3,0.2 -0.28,0.78 -0.3,0.38 -0.19,0.58 -0.2,0.49 v 0.68 l -0.09,0.58 0.09,0.48 v 0.68 l 0.2,0.39 0.19,0.78 0.1,0.19 0.48,0.87 0.21,0.2 0.58,0.68 27.26,27.65 c 2.42,2.33 6.39,2.33 8.72,0 2.43,-2.43 2.43,-6.31 0,-8.74 l -22.98,-23.18 22.98,-23.19"
         style="fill:#fabb1e;fill-opacity:1;fill-rule:nonzero;stroke:none"
         id="path312" />
      <path
         d="m 2473.39,2540.01 23.77,56.56 c 1.16,2.71 4.26,3.98 7.08,2.81 2.62,-1.06 3.88,-4.27 2.72,-6.89 l -23.77,-56.65 c -0.88,-2.04 -2.91,-3.2 -4.95,-3.2 l -1.94,0.38 c -2.81,1.07 -4.07,4.27 -2.91,6.99"
         style="fill:#fabb1e;fill-opacity:1;fill-rule:nonzero;stroke:none"
         id="path314" />
      <path
         d="m 2553.89,2562.81 -0.09,-0.1 -0.69,-0.68 -27.26,-27.65 c -1.16,-1.16 -2.81,-1.74 -4.37,-1.74 -1.65,0 -3.09,0.58 -4.35,1.74 -2.44,2.43 -2.44,6.21 0,8.73 l 22.98,23.19 -22.98,23.18 c -2.44,2.43 -2.44,6.31 0,8.74 2.32,2.33 6.3,2.33 8.72,0 l 27.26,-27.65 0.69,-0.68 0.09,-0.2 0.49,-0.87 0.1,-0.19 0.28,-0.88 0.09,-0.29 v -0.68 l 0.11,-0.48 -0.11,-0.48 v -0.78 l -0.09,-0.2 -0.28,-0.87 -0.1,-0.29 -0.49,-0.87"
         style="fill:#fabb1e;fill-opacity:1;fill-rule:nonzero;stroke:none"
         id="path316" />
      <path
         d="M 1268.91,2370.38 H 759.027 v 666.01 h 384.423 l 125.46,-125.46 v -540.55"
         style="fill:#fabb1e;fill-opacity:1;fill-rule:nonzero;stroke:none"
         id="path318" />
      <path
         d="M 1268.91,2370.38 H 759.027 v 666.01 h 384.423 l 125.46,-125.46 v -540.55 m -221.52,262.42 h 146.05 l -128.93,157.4 -79.627,-97.21 -43.942,42.31 -106.445,-102.5 h 212.894"
         style="fill:#ffcb56;fill-opacity:1;fill-rule:nonzero;stroke:none"
         id="path320" />
      <path
         d="m 1268.91,2910.93 h -125.46 v 125.46 z"
         style="fill:#fe4c1c;fill-opacity:1;fill-rule:nonzero;stroke:none"
         id="path322" />
      <path
         d="m 876.918,2801.69 c 0.066,-21 17.145,-37.97 38.148,-37.9 21.004,0.07 37.977,17.15 37.911,38.15 -0.067,21 -17.149,37.97 -38.153,37.91 -21.004,-0.07 -37.972,-17.15 -37.906,-38.16"
         style="fill:#fe4c1c;fill-opacity:1;fill-rule:nonzero;stroke:none"
         id="path324" />
      <path
         d="M 935.578,2632.8 H 1193.44 L 1064.51,2790.2 935.578,2632.8"
         style="fill:#fe4c1c;fill-opacity:1;fill-rule:nonzero;stroke:none"
         id="path326" />
      <path
         d="M 834.496,2632.8 H 1047.39 L 940.941,2735.3 834.496,2632.8"
         style="fill:#fabb1e;fill-opacity:1;fill-rule:nonzero;stroke:none"
         id="path328" />
      <path
         d="M 1047.39,2632.8 H 834.496 l 106.445,102.5 106.449,-102.5"
         style="fill:#fe6e2c;fill-opacity:1;fill-rule:nonzero;stroke:none"
         id="path330" />
      <path
         d="m 1193.44,2884.68 v 10 H 824.496 V 2622.8 h 378.944 v 271.88 h -10 v -10 h -10 V 2642.8 H 844.496 v 231.88 h 348.944 v 10 h -10 10"
         style="fill:#fe4c1c;fill-opacity:1;fill-rule:nonzero;stroke:none"
         id="path332" />
      <path
         d="M 1235.743,2437.3685 H 635.199 V 2605.64 h 600.544 v -168.2715"
         style="fill:#33535f;fill-opacity:1;fill-rule:nonzero;stroke:none;stroke-width:1.34921"
         id="path334" />
      <path
         d="M 1268.91,1561.43 H 758.488 v 666.7 h 384.832 l 125.59,-125.59 v -541.11"
         style="fill:#fabb1e;fill-opacity:1;fill-rule:nonzero;stroke:none"
         id="path344" />
      <path
         d="M 1268.91,1561.43 H 758.488 v 666.7 h 384.832 l 125.59,-125.59 v -541.11 m -221.75,262.69 h 146.2 l -129.07,157.57 -79.712,-97.32 -43.98,42.36 -106.563,-102.61 h 213.125"
         style="fill:#ffcb56;fill-opacity:1;fill-rule:nonzero;stroke:none"
         id="path346" />
      <path
         d="m 1268.91,2102.54 h -125.59 v 125.59 z"
         style="fill:#fe4c1c;fill-opacity:1;fill-rule:nonzero;stroke:none"
         id="path348" />
      <path
         d="m 876.504,1993.19 c 0.066,-21.02 17.164,-38.01 38.187,-37.95 21.028,0.07 38.016,17.17 37.95,38.19 -0.067,21.03 -17.164,38.02 -38.192,37.95 -21.023,-0.06 -38.011,-17.16 -37.945,-38.19"
         style="fill:#fe4c1c;fill-opacity:1;fill-rule:nonzero;stroke:none"
         id="path350" />
      <path
         d="M 935.223,1824.12 H 1193.36 L 1064.29,1981.69 935.223,1824.12"
         style="fill:#fe4c1c;fill-opacity:1;fill-rule:nonzero;stroke:none"
         id="path352" />
      <path
         d="M 834.035,1824.12 H 1047.16 L 940.598,1926.73 834.035,1824.12"
         style="fill:#fabb1e;fill-opacity:1;fill-rule:nonzero;stroke:none"
         id="path354" />
      <path
         d="M 1047.16,1824.12 H 834.035 l 106.563,102.61 106.562,-102.61"
         style="fill:#fe6e2c;fill-opacity:1;fill-rule:nonzero;stroke:none"
         id="path356" />
      <path
         d="m 1193.36,2076.26 v 10 H 824.035 v -272.14 h 379.325 v 272.14 h -10 v -10 h -10 V 1834.12 H 844.035 v 232.14 h 349.325 v 10 h -10 10"
         style="fill:#fe4c1c;fill-opacity:1;fill-rule:nonzero;stroke:none"
         id="path358" />
      <path
         d="M 1076.9108,1613.8557 H 634.527 V 1796.93 h 442.3838 v -183.0743"
         style="fill:#33535f;fill-opacity:1;fill-rule:nonzero;stroke:none;stroke-width:1.20658"
         id="path360" />
      <path
         d="m 700.398,1897.88 h 10 v 7.5 h -10 z"
         style="fill:#17282f;fill-opacity:1;fill-rule:nonzero;stroke:none"
         id="path368" />
      <path
         d="m 682.102,1905.38 h -18.293 v -7.5 h 18.293 z m -36.586,0 h -18.2969 v -7.5 h 18.2969 z"
         style="fill:#17282f;fill-opacity:1;fill-rule:nonzero;stroke:none"
         id="path370" />
      <path
         d="m 608.926,1905.38 h -6.25 v 6.25 h -7.5 v -10 -3.75 h 13.75 v 7.5"
         style="fill:#17282f;fill-opacity:1;fill-rule:nonzero;stroke:none"
         id="path372" />
      <path
         d="m 602.676,1951.24 h -7.5 v -19.8086 h 7.5 z m 0,39.61 h -7.5 v -19.8125 h 7.5 z m 0,39.61 h -7.5 v -19.8125 h 7.5 z m 0,39.61 h -7.5 v -19.8086 h 7.5 z m 0,39.61 h -7.5 v -19.8086 h 7.5 z m 0,39.61 h -7.5 v -19.8086 h 7.5 z m 0,39.61 h -7.5 v -19.8086 h 7.5 z m 0,39.6 h -7.5 v -19.8008 h 7.5 z m 0,39.61 h -7.5 v -19.8008 h 7.5 z m 0,39.61 h -7.5 v -19.7969 h 7.5 z m 0,39.61 h -7.5 v -19.7969 h 7.5 z m 0,39.61 h -7.5 v -19.8008 h 7.5 z m 0,39.61 h -7.5 v -19.8008 h 7.5 z m 0,39.61 h -7.5 v -19.8008 h 7.5 z m 0,39.61 h -7.5 v -19.8008 h 7.5 z m 0,39.61 h -7.5 v -19.8086 h 7.5 z m 0,39.61 h -7.5 v -19.8086 h 7.5 z m 0,39.61 h -7.5 v -19.8125 h 7.5 z m 0,39.61 h -7.5 v -19.8125 h 7.5 z m 0,39.61 h -7.5 v -19.8086 h 7.5 z m 0,39.61 h -7.5 v -19.8086 h 7.5 z m 0,39.61 h -7.5 v -19.8086 h 7.5 z"
         style="fill:#17282f;fill-opacity:1;fill-rule:nonzero;stroke:none"
         id="path374" />
      <path
         d="m 602.676,2802.84 v 6.25 h 6.25 v 7.5 h -10 -3.75 v -13.75 h 7.5"
         style="fill:#17282f;fill-opacity:1;fill-rule:nonzero;stroke:none"
         id="path376" />
      <path
         d="m 625.102,2809.09 h 16.1719 v 7.5 H 625.102 Z m 32.347,0 h 16.1758 v 7.5 H 657.449 Z"
         style="fill:#17282f;fill-opacity:1;fill-rule:nonzero;stroke:none"
         id="path378" />
      <path
         d="m 689.801,2809.09 h 10 v 7.5 h -10 z"
         style="fill:#17282f;fill-opacity:1;fill-rule:nonzero;stroke:none"
         id="path380" />
      <path
         d="m 709.836,1912.91 c 6.227,0 11.277,-5.05 11.277,-11.28 0,-6.23 -5.05,-11.28 -11.277,-11.28 -6.231,0 -11.281,5.05 -11.281,11.28 0,6.23 5.05,11.28 11.281,11.28"
         style="fill:#17282f;fill-opacity:1;fill-rule:nonzero;stroke:none"
         id="path382" />
      <path
         d="m 699.238,2801.56 c 6.227,0 11.278,5.05 11.278,11.28 0,6.23 -5.051,11.28 -11.278,11.28 -6.23,0 -11.281,-5.05 -11.281,-11.28 0,-6.23 5.051,-11.28 11.281,-11.28"
         style="fill:#17282f;fill-opacity:1;fill-rule:nonzero;stroke:none"
         id="path384" />
      <path
         d="m 598.926,2361.62 h -20 v -7.5 h 20 z m -40,0 h -20 v -7.5 h 20 z m -40,0 h -20 v -7.5 h 20 z m -40,0 h -2.34 v -3.75 h 3.75 v 17.66 h -7.5 v 0 -21.41 h 6.09 z m 1.41,53.91 h -7.5 v -20 h 7.5 z m 0,40 h -7.5 v -20 h 7.5 z m 0,40 h -7.5 v -20 h 7.5 z m 0,40 h -7.5 v -20 h 7.5 z m 0,40 h -7.5 v -20 h 7.5 z m 0,40 h -7.5 v -20 h 7.5 z m 0,40 h -7.5 v -20 h 7.5 z m 0,40 h -7.5 v -20 h 7.5 z m 0,40 h -7.5 v -20 h 7.5 z m 0,40 h -7.5 v -20 h 7.5 z m 0,40 h -7.5 v -20 h 7.5 z m 0,40 h -7.5 v -20 h 7.5 z m 0,40 h -7.5 v -20 h 7.5 z m 0,40 h -7.5 v -20 h 7.5 z m 0,40 h -7.5 v -20 h 7.5 z m 0,40 h -7.5 v -20 h 7.5 z m 0,40 h -7.5 v -20 h 7.5 z m 0,40 h -7.5 v -20 h 7.5 z m 0,40 h -7.5 v -20 h 7.5 z m 0,40 h -7.5 v -20 h 7.5 z m 0,40 h -7.5 v -20 h 7.5 z m 0,40 h -7.5 v -20 h 7.5 z m 0,40 h -7.5 v -20 h 7.5 z m 0,40 h -7.5 v -20 h 7.5 z m 0,40 h -7.5 v -20 h 7.5 z m 0,20 v 1.9 h 10.605 v 7.5 h -18.105 v -9.4 z m 30.605,1.9 h 20 v 7.5 h -20 z m 40,0 h 20 v 7.5 h -20 z m 40,0 h 20 v 7.5 h -20 z m 40,0 h 20 v 7.5 h -20 z m 40,0 h 20 v 7.5 h -20 z m 40,0 h 20 v 7.5 h -20 z m 40,0 h 20 v 7.5 h -20 z m 40,0 h 20 v 7.5 h -20 z m 40,0 h 20 v 7.5 h -20 z m 40,0 h 20 v 7.5 h -20 z m 40,0 h 20 v 7.5 h -20 z m 40,0 h 20 v 7.5 h -20 z m 40,0 h 20 v 7.5 h -20 z m 39.999,0 h 20 v 7.5 h -20 z m 40,0 h 20 v 7.5 h -20 z m 40,0 h 20 v 7.5 h -20 z m 40,0 h 20 v 7.5 h -20 z m 40,0 h 20 v 7.5 h -20 z m 40,0 h 20 v 7.5 h -20 z m 40,0 h 20 v 7.5 h -20 z m 40,0 h 20 v 7.5 h -20 z m 40,0 h 20 v 7.5 h -20 z m 40,0 h 20 v 7.5 h -20 z m 40,0 h 20 v 7.5 h -20 z m 40,0 h 20 v 7.5 h -20 z m 40,0 h 20 v 7.5 h -20 z m 40,0 h 20 v 7.5 h -20 z m 40,0 h 20 v 7.5 h -20 z m 40,0 h 20 v 7.5 h -20 z m 40,0 h 20 v 7.5 h -20 z m 40,0 h 20 v 7.5 h -20 z m 40,0 h 20 v 7.5 h -20 z"
         style="fill:#17282f;fill-opacity:1;fill-rule:nonzero;stroke:none"
         id="path386" />
      <path
         d="m 1780.34,3386.22 25.9,14.96 -25.9,14.96 z"
         style="fill:#17282f;fill-opacity:1;fill-rule:nonzero;stroke:none"
         id="path388" />
      <path
         d="M 2666.61,1291.82 H 6453.94 V 3689.85 H 2666.61 Z"
         style="fill:#ffffff;fill-opacity:1;fill-rule:nonzero;stroke:none"
         id="path390" />
      <path
         d="M 2667.86,1293.07 H 6452.69 V 3688.6 H 2667.86 Z m 3787.33,-2.5 H 2665.36 V 3691.1 H 6455.19 V 1290.57"
         style="fill:#17282f;fill-opacity:1;fill-rule:nonzero;stroke:none"
         id="path392" />
      <path
         d="M 6453.94,3597.57 H 2666.61 v 92.28 h 3787.33 v -92.28"
         style="fill:url(#linearGradient2694);fill-opacity:1;fill-rule:nonzero;stroke:none"
         id="path394" />
      <path
         d="m 2753.47,3643.71 c 0,-9.64 -7.81,-17.46 -17.45,-17.46 -9.65,0 -17.47,7.82 -17.47,17.46 0,9.65 7.82,17.46 17.47,17.46 9.64,0 17.45,-7.81 17.45,-17.46"
         style="fill:#bebfbd;fill-opacity:1;fill-rule:nonzero;stroke:none"
         id="path396" />
      <path
         d="m 2824.77,3643.71 c 0,-9.64 -7.82,-17.46 -17.46,-17.46 -9.64,0 -17.46,7.82 -17.46,17.46 0,9.65 7.82,17.46 17.46,17.46 9.64,0 17.46,-7.81 17.46,-17.46"
         style="fill:#ffffff;fill-opacity:1;fill-rule:nonzero;stroke:none"
         id="path398" />
      <path
         d="m 2896.06,3643.71 c 0,-9.64 -7.81,-17.46 -17.46,-17.46 -9.64,0 -17.45,7.82 -17.45,17.46 0,9.65 7.81,17.46 17.45,17.46 9.65,0 17.46,-7.81 17.46,-17.46"
         style="fill:#33535f;fill-opacity:1;fill-rule:nonzero;stroke:none"
         id="path400" />
      <path
         d="m 3054.31,2353.71 h -280 v 1243.86 h 280 V 2353.71"
         style="fill:#e7e8e5;fill-opacity:1;fill-rule:nonzero;stroke:none"
         id="path402" />
      <path
         d="m 2901.51,3142.88 h 3317.52 v 301.313 H 2901.51 Z"
         style="fill:url(#linearGradient6645);fill-opacity:1;fill-rule:nonzero;stroke:none"
         id="path404" />
      <path
         d="m 3130.73,3315.16 h -76.42 v 12.42 h 76.42 v -12.42"
         style="fill:#ffffff;fill-opacity:1;fill-rule:nonzero;stroke:none"
         id="path406" />
      <path
         d="m 3130.73,3259.5 h -76.42 v 12.42 h 76.42 v -12.42"
         style="fill:#ffffff;fill-opacity:1;fill-rule:nonzero;stroke:none"
         id="path408" />
      <path
         d="m 3130.73,3287 h -76.42 v 12.43 h 76.42 V 3287"
         style="fill:#ffffff;fill-opacity:1;fill-rule:nonzero;stroke:none"
         id="path410" />
      <path
         d="m 4037.05,3248.21 h -735.39 v 90.65 h 735.39 v -90.65"
         style="fill:#ffffff;fill-opacity:1;fill-rule:nonzero;stroke:none"
         id="path412" />
      <path
         d="m 4037.98,3247.29 h -737.25 v 92.5 h 737.25 v -92.5"
         style="fill:#ffffff;fill-opacity:1;fill-rule:nonzero;stroke:none"
         id="path414" />
      <path
         d="m 4038,3247.27 h -92.54 v 92.54 H 4038 v -92.54"
         style="fill:#33535f;fill-opacity:1;fill-rule:nonzero;stroke:none"
         id="path416" />
      <path
         d="m 4020.47,3268.13 -8.38,-6.34 -15.51,20.48 -5.67,7.49 c 1.13,0.44 2.23,1.06 3.25,1.84 1.97,1.5 3.4,3.44 4.3,5.57 l 6.03,-7.94 15.98,-21.1"
         style="fill:#ffffff;fill-opacity:1;fill-rule:nonzero;stroke:none"
         id="path418" />
      <path
         d="m 3994.16,3291.6 c -1.02,-0.78 -2.12,-1.4 -3.25,-1.84 -5.55,-2.22 -12.1,-0.61 -15.91,4.36 -4.59,5.99 -3.47,14.58 2.53,19.17 5.99,4.59 14.56,3.46 19.16,-2.54 3.08,-4.02 3.59,-9.21 1.77,-13.58 -0.9,-2.13 -2.33,-4.07 -4.3,-5.57 z m 9.82,24.75 c -7.68,10.02 -22.03,11.91 -32.04,4.23 -10.01,-7.68 -11.9,-22.03 -4.22,-32.04 6.89,-9.01 19.18,-11.44 28.86,-6.27 1.1,0.59 2.16,1.26 3.17,2.04 1.86,1.44 3.45,3.1 4.74,4.92 5.65,7.96 5.73,18.97 -0.51,27.12"
         style="fill:#ffffff;fill-opacity:1;fill-rule:nonzero;stroke:none"
         id="path420" />
      <path
         d="m 3325.48,3266.04 h -4.86 v 55 h 4.86 v -55"
         style="fill:#bebfbd;fill-opacity:1;fill-rule:nonzero;stroke:none"
         id="path422" />
      <path
         d="m 6065.82,3279.74 h -317.83 v 27.6 h 317.83 v -27.6"
         style="fill:#ffffff;fill-opacity:1;fill-rule:nonzero;stroke:none"
         id="path424" />
      <path
         d="m 5578.1,3279.74 h -317.84 v 27.6 h 317.84 v -27.6"
         style="fill:#ffffff;fill-opacity:1;fill-rule:nonzero;stroke:none"
         id="path426" />
      <path
         d="m 4772.53,3279.74 h 317.84 v 27.5938 h -317.84 z"
         style="fill:#f4ac12;fill-opacity:1;fill-rule:nonzero;stroke:none"
         id="path428" />
      <path
         d="m 4602.64,3279.74 h -317.83 v 27.6 h 317.83 v -27.6"
         style="fill:#ffffff;fill-opacity:1;fill-rule:nonzero;stroke:none"
         id="path430" />
      <path
         d="M 6453.94,2204.11 H 2666.61 V 1902.8 h 3787.33 v 301.31"
         style="fill:url(#linearGradient11514);fill-opacity:1;fill-rule:nonzero;stroke:none"
         id="path432" />
      <path
         d="m 3634.48,1726.62 h -732.97 v 33.89 h 732.97 v -33.89"
         style="fill:#33535f;fill-opacity:1;fill-rule:nonzero;stroke:none"
         id="path434" />
      <path
         d="m 2901.51,1644.35 117.61,1.82 117.61,1.05 235.22,0.87 235.22,-0.86 117.6,-1.05 117.61,-1.83 -117.61,-1.84 -117.6,-1.05 -235.22,-0.86 -235.22,0.87 -117.61,1.05 -117.61,1.83"
         style="fill:#999b9b;fill-opacity:1;fill-rule:nonzero;stroke:none"
         id="path436" />
      <path
         d="m 2901.51,1598.09 117.61,1.82 117.61,1.05 235.22,0.87 235.22,-0.86 117.6,-1.05 117.61,-1.83 -117.61,-1.84 -117.6,-1.05 -235.22,-0.86 -235.22,0.88 -117.61,1.05 -117.61,1.82"
         style="fill:#999b9b;fill-opacity:1;fill-rule:nonzero;stroke:none"
         id="path438" />
      <path
         d="m 2901.51,1551.83 117.61,1.82 117.61,1.05 235.22,0.88 235.22,-0.86 117.6,-1.05 117.61,-1.84 -117.61,-1.83 -117.6,-1.05 -235.22,-0.86 -235.22,0.87 -117.61,1.05 -117.61,1.82"
         style="fill:#999b9b;fill-opacity:1;fill-rule:nonzero;stroke:none"
         id="path440" />
      <path
         d="m 2901.51,1505.57 117.61,1.83 117.61,1.05 235.22,0.87 235.22,-0.86 117.6,-1.05 117.61,-1.84 -117.61,-1.83 -117.6,-1.05 -235.22,-0.86 -235.22,0.87 -117.61,1.05 -117.61,1.82"
         style="fill:#999b9b;fill-opacity:1;fill-rule:nonzero;stroke:none"
         id="path442" />
      <path
         d="m 2901.51,1459.32 c 39.21,1.54 78.41,2.27 117.61,2.87 l 117.61,0.87 117.61,-0.86 c 39.2,-0.6 78.41,-1.32 117.61,-2.88 -39.2,-1.56 -78.41,-2.28 -117.61,-2.89 l -117.61,-0.86 -117.61,0.88 c -39.2,0.6 -78.4,1.32 -117.61,2.87"
         style="fill:#999b9b;fill-opacity:1;fill-rule:nonzero;stroke:none"
         id="path444" />
      <path
         d="m 4822.81,1726.62 h -732.97 v 33.89 h 732.97 v -33.89"
         style="fill:#33535f;fill-opacity:1;fill-rule:nonzero;stroke:none"
         id="path446" />
      <path
         d="m 4089.84,1644.35 117.61,1.82 117.61,1.05 235.21,0.87 235.22,-0.86 117.61,-1.05 117.61,-1.83 -117.61,-1.84 -117.61,-1.05 -235.22,-0.86 -235.21,0.87 -117.61,1.05 -117.61,1.83"
         style="fill:#999b9b;fill-opacity:1;fill-rule:nonzero;stroke:none"
         id="path448" />
      <path
         d="m 4089.84,1598.09 117.61,1.82 117.61,1.05 235.21,0.87 235.22,-0.86 117.61,-1.05 117.61,-1.83 -117.61,-1.84 -117.61,-1.05 -235.22,-0.86 -235.21,0.88 -117.61,1.05 -117.61,1.82"
         style="fill:#999b9b;fill-opacity:1;fill-rule:nonzero;stroke:none"
         id="path450" />
      <path
         d="m 4089.84,1551.83 117.61,1.82 117.61,1.05 235.21,0.88 235.22,-0.86 117.61,-1.05 117.61,-1.84 -117.61,-1.83 -117.61,-1.05 -235.22,-0.86 -235.21,0.87 -117.61,1.05 -117.61,1.82"
         style="fill:#999b9b;fill-opacity:1;fill-rule:nonzero;stroke:none"
         id="path452" />
      <path
         d="m 4089.84,1505.57 117.61,1.83 117.61,1.05 235.21,0.87 235.22,-0.86 117.61,-1.05 117.61,-1.84 -117.61,-1.83 -117.61,-1.05 -235.22,-0.86 -235.21,0.87 -117.61,1.05 -117.61,1.82"
         style="fill:#999b9b;fill-opacity:1;fill-rule:nonzero;stroke:none"
         id="path454" />
      <path
         d="m 4089.84,1459.32 c 39.2,1.54 78.41,2.27 117.61,2.87 l 117.61,0.87 117.6,-0.86 c 39.21,-0.6 78.41,-1.32 117.61,-2.88 -39.2,-1.56 -78.4,-2.28 -117.61,-2.89 l -117.6,-0.86 -117.61,0.88 c -39.2,0.6 -78.41,1.32 -117.61,2.87"
         style="fill:#999b9b;fill-opacity:1;fill-rule:nonzero;stroke:none"
         id="path456" />
      <path
         d="m 6011.13,1726.62 h -732.97 v 33.89 h 732.97 v -33.89"
         style="fill:#33535f;fill-opacity:1;fill-rule:nonzero;stroke:none"
         id="path458" />
      <path
         d="m 5278.16,1644.35 117.61,1.82 117.61,1.05 235.22,0.87 235.22,-0.86 117.6,-1.05 117.61,-1.83 -117.61,-1.84 -117.6,-1.05 -235.22,-0.86 -235.22,0.87 -117.61,1.05 -117.61,1.83"
         style="fill:#999b9b;fill-opacity:1;fill-rule:nonzero;stroke:none"
         id="path460" />
      <path
         d="m 5278.16,1598.09 117.61,1.82 117.61,1.05 235.22,0.87 235.22,-0.86 117.6,-1.05 117.61,-1.83 -117.61,-1.84 -117.6,-1.05 -235.22,-0.86 -235.22,0.88 -117.61,1.05 -117.61,1.82"
         style="fill:#999b9b;fill-opacity:1;fill-rule:nonzero;stroke:none"
         id="path462" />
      <path
         d="m 5278.16,1551.83 117.61,1.82 117.61,1.05 235.22,0.88 235.22,-0.86 117.6,-1.05 117.61,-1.84 -117.61,-1.83 -117.6,-1.05 -235.22,-0.86 -235.22,0.87 -117.61,1.05 -117.61,1.82"
         style="fill:#999b9b;fill-opacity:1;fill-rule:nonzero;stroke:none"
         id="path464" />
      <path
         d="m 5278.16,1505.57 117.61,1.83 117.61,1.05 235.22,0.87 235.22,-0.86 117.6,-1.05 117.61,-1.84 -117.61,-1.83 -117.6,-1.05 -235.22,-0.86 -235.22,0.87 -117.61,1.05 -117.61,1.82"
         style="fill:#999b9b;fill-opacity:1;fill-rule:nonzero;stroke:none"
         id="path466" />
      <path
         d="m 5278.16,1459.32 c 39.21,1.54 78.41,2.27 117.61,2.87 l 117.61,0.87 117.61,-0.86 c 39.2,-0.6 78.41,-1.32 117.61,-2.88 -39.2,-1.56 -78.41,-2.28 -117.61,-2.89 l -117.61,-0.86 -117.61,0.88 c -39.2,0.6 -78.4,1.32 -117.61,2.87"
         style="fill:#999b9b;fill-opacity:1;fill-rule:nonzero;stroke:none"
         id="path468" />
      <path
         d="m 3318.61,2316.01 h 641.05 v 641.05 h -641.05 v -641.05"
         style="fill:#e7e8e5;fill-opacity:1;fill-rule:nonzero;stroke:none"
         id="path470" />
      <path
         d="m 3356.32,2353.71 h 565.63 v 565.64 h -565.63 v -565.64"
         style="fill:#33535f;fill-opacity:1;fill-rule:nonzero;stroke:none"
         id="path472" />
      <path
         d="m 3447.43,2784.38 c -7.13,-37.58 25.21,-69.91 62.78,-62.79 21,3.98 37.93,20.91 41.91,41.91 7.12,37.58 -25.21,69.9 -62.79,62.78 -20.99,-3.98 -37.92,-20.91 -41.9,-41.9"
         style="fill:#273e47;fill-opacity:1;fill-rule:nonzero;stroke:none"
         id="path474" />
      <path
         d="m 3513.16,2500.52 h 408.79 l -204.4,229.21 z"
         style="fill:#273e47;fill-opacity:1;fill-rule:nonzero;stroke:none"
         id="path476" />
      <path
         d="m 3356.32,2500.52 h 337.5 l -168.75,149.26 z"
         style="fill:#17282f;fill-opacity:1;fill-rule:nonzero;stroke:none"
         id="path478" />
      <path
         d="m 3921.95,2353.71 h -565.63 v 146.81 h 565.63 v -146.81"
         style="fill:#17282f;fill-opacity:1;fill-rule:nonzero;stroke:none"
         id="path480" />
      <path
         d="m 5160.89,2316.01 h 641.05 v 641.05 h -641.05 v -641.05"
         style="fill:#e7e8e5;fill-opacity:1;fill-rule:nonzero;stroke:none"
         id="path482" />
      <path
         d="m 5198.59,2353.71 h 565.64 v 565.64 h -565.64 v -565.64"
         style="fill:#33535f;fill-opacity:1;fill-rule:nonzero;stroke:none"
         id="path484" />
      <path
         d="m 5289.71,2784.38 c -7.13,-37.58 25.21,-69.91 62.78,-62.79 21,3.98 37.93,20.91 41.91,41.91 7.12,37.58 -25.21,69.9 -62.79,62.78 -20.99,-3.98 -37.92,-20.91 -41.9,-41.9"
         style="fill:#273e47;fill-opacity:1;fill-rule:nonzero;stroke:none"
         id="path486" />
      <path
         d="m 5355.43,2500.52 h 408.8 l -204.4,229.21 z"
         style="fill:#273e47;fill-opacity:1;fill-rule:nonzero;stroke:none"
         id="path488" />
      <path
         d="m 5198.59,2500.52 h 337.51 l -168.75,149.26 z"
         style="fill:#17282f;fill-opacity:1;fill-rule:nonzero;stroke:none"
         id="path490" />
      <path
         d="m 5764.23,2353.71 h -565.64 v 146.81 h 565.64 v -146.81"
         style="fill:#17282f;fill-opacity:1;fill-rule:nonzero;stroke:none"
         id="path492" />
      <path
         d="m 4239.75,2316.01 h 641.051 v 641.047 H 4239.75 Z"
         style="fill:#e7e8e5;fill-opacity:1;fill-rule:nonzero;stroke:none"
         id="path494" />
      <path
         d="m 4277.45,2353.71 h 565.641 v 565.641 H 4277.45 Z"
         style="fill:#fe4c1c;fill-opacity:1;fill-rule:nonzero;stroke:none"
         id="path496" />
      <path
         d="m 4420.91,2720.6 c -32.87,0 -58.79,29.74 -52.34,63.78 3.98,20.99 20.91,37.92 41.9,41.9 3.54,0.67 7.03,0.99 10.44,0.99 32.87,0 58.8,-29.73 52.35,-63.77 -3.98,-21 -20.91,-37.92 -41.91,-41.91 -3.53,-0.67 -7.02,-0.99 -10.44,-0.99"
         style="fill:#df2100;fill-opacity:1;fill-rule:nonzero;stroke:none"
         id="path498" />
      <path
         d="m 4843.09,2500.53 h -228.13 l -101,89.33 124.73,139.87 204.4,-229.2"
         style="fill:#fe6e2c;fill-opacity:1;fill-rule:nonzero;stroke:none"
         id="path500" />
      <path
         d="m 4614.96,2500.53 h -337.51 l 168.76,149.25 168.75,-149.25"
         style="fill:#df2100;fill-opacity:1;fill-rule:nonzero;stroke:none"
         id="path504" />
      <path
         d="m 4277.45,2353.71 h 565.641 v 146.82 H 4277.45 Z"
         style="fill:#fabb1e;fill-opacity:1;fill-rule:nonzero;stroke:none"
         id="path506" />
      <path
         d="m 4277.45,2353.71 h 565.641 v 154.8107 H 4277.45 Z"
         style="fill:#df2100;fill-opacity:1;fill-rule:nonzero;stroke:none;stroke-width:1.02685"
         id="path508" />
      <path
         d="m 3356.32,2122.84 156.52,1.82 156.53,1.05 313.05,0.87 313.05,-0.86 156.53,-1.05 156.53,-1.83 -156.53,-1.84 -156.53,-1.05 -313.05,-0.86 -313.05,0.88 -156.53,1.04 -156.52,1.83"
         style="fill:#ffffff;fill-opacity:1;fill-rule:nonzero;stroke:none"
         id="path510" />
      <path
         d="m 3356.32,2076.58 156.52,1.82 156.53,1.05 313.05,0.88 313.05,-0.86 156.53,-1.05 156.53,-1.84 -156.53,-1.83 -156.53,-1.05 -313.05,-0.86 -313.05,0.87 -156.53,1.05 -156.52,1.82"
         style="fill:#ffffff;fill-opacity:1;fill-rule:nonzero;stroke:none"
         id="path512" />
      <path
         d="m 3356.32,2030.32 156.52,1.83 156.53,1.05 313.05,0.87 313.05,-0.86 156.53,-1.05 156.53,-1.84 -156.53,-1.83 -156.53,-1.05 -313.05,-0.86 -313.05,0.87 -156.53,1.05 -156.52,1.82"
         style="fill:#ffffff;fill-opacity:1;fill-rule:nonzero;stroke:none"
         id="path514" />
      <path
         d="m 3356.32,1984.07 c 52.17,1.55 104.35,2.27 156.52,2.87 l 156.53,0.87 156.52,-0.86 c 52.18,-0.6 104.35,-1.32 156.53,-2.88 -52.18,-1.56 -104.35,-2.28 -156.53,-2.89 l -156.52,-0.86 -156.53,0.88 c -52.17,0.6 -104.35,1.32 -156.52,2.87"
         style="fill:#ffffff;fill-opacity:1;fill-rule:nonzero;stroke:none"
         id="path516" />
      <path
         d="m 2947.28,2007.58 v 91.75 l -44.59,-42.57 z"
         style="fill:#ffffff;fill-opacity:1;fill-rule:nonzero;stroke:none"
         id="path518" />
      <path
         d="m 6175.65,2099.33 v -91.75 l 44.59,42.57 z"
         style="fill:#ffffff;fill-opacity:1;fill-rule:nonzero;stroke:none"
         id="path520" />
      <path
         d="m 2134.57,3465.77 c 0,84.58 68.48,153.09 152.98,153.09 84.66,0 153.14,-68.51 153.14,-153.09 0,-84.54 -68.48,-153.06 -153.14,-153.06 -84.5,0 -152.98,68.52 -152.98,153.06 z m -41.38,0 c 0,-107.23 87.21,-194.44 194.36,-194.44 107.27,0 194.48,87.21 194.48,194.44 0,107.22 -87.21,194.48 -194.48,194.48 -107.15,0 -194.36,-87.26 -194.36,-194.48 z m -18.66,0 c 0,117.48 95.58,213.13 213.02,213.13 117.53,0 213.18,-95.65 213.18,-213.13 0,-117.52 -95.65,-213.1 -213.18,-213.1 -117.44,0 -213.02,95.58 -213.02,213.1 z m -114.69,0 c 0,-181.01 146.78,-327.75 327.71,-327.75 181.09,0 327.83,146.74 327.83,327.75 0,181.04 -146.74,327.83 -327.83,327.83 -180.93,0 -327.71,-146.79 -327.71,-327.83 z m 174.73,0 c 0,84.58 68.48,153.09 152.98,153.09 84.66,0 153.14,-68.51 153.14,-153.09 0,-84.54 -68.48,-153.06 -153.14,-153.06 -84.5,0 -152.98,68.52 -152.98,153.06 z m -41.38,0 c 0,-107.23 87.21,-194.44 194.36,-194.44 107.27,0 194.48,87.21 194.48,194.44 0,107.22 -87.21,194.48 -194.48,194.48 -107.15,0 -194.36,-87.26 -194.36,-194.48 z m 41.38,0 c 0,84.58 68.48,153.09 152.98,153.09 84.66,0 153.14,-68.51 153.14,-153.09 0,-84.54 -68.48,-153.06 -153.14,-153.06 -84.5,0 -152.98,68.52 -152.98,153.06 z m -41.38,0 c 0,-107.23 87.21,-194.44 194.36,-194.44 107.27,0 194.48,87.21 194.48,194.44 0,107.22 -87.21,194.48 -194.48,194.48 -107.15,0 -194.36,-87.26 -194.36,-194.48"
         style="fill:#ffcb56;fill-opacity:1;fill-rule:nonzero;stroke:none"
         id="path522" />
      <path
         d="m 2249.13,3787.64 h 75.05 l -7.47,74.92 h -60.11 l -7.47,-74.92"
         style="fill:#ffca59;fill-opacity:1;fill-rule:nonzero;stroke:none"
         id="path524" />
      <path
         d="m 2415.21,3763.77 65,-37.52 30.99,68.61 -52.06,30.05 -43.93,-61.14"
         style="fill:#ffca59;fill-opacity:1;fill-rule:nonzero;stroke:none"
         id="path526" />
      <path
         d="m 2547.11,3660.05 37.53,-64.99 61.14,43.92 -30.05,52.06 -68.62,-30.99"
         style="fill:#ffca59;fill-opacity:1;fill-rule:nonzero;stroke:none"
         id="path528" />
      <path
         d="m 2609.48,3504.28 v -75.05 l 74.91,7.47 v 60.11 l -74.91,7.47"
         style="fill:#ffca59;fill-opacity:1;fill-rule:nonzero;stroke:none"
         id="path530" />
      <path
         d="m 2585.61,3338.2 -37.53,-65 68.62,-30.99 30.05,52.06 -61.14,43.93"
         style="fill:#ffca59;fill-opacity:1;fill-rule:nonzero;stroke:none"
         id="path532" />
      <path
         d="m 2481.89,3206.3 -65,-37.53 43.93,-61.14 52.05,30.05 -30.98,68.62"
         style="fill:#ffca59;fill-opacity:1;fill-rule:nonzero;stroke:none"
         id="path534" />
      <path
         d="m 2326.12,3143.93 h -75.05 l 7.47,-74.91 h 60.1 l 7.48,74.91"
         style="fill:#ffca59;fill-opacity:1;fill-rule:nonzero;stroke:none"
         id="path536" />
      <path
         d="m 2160.03,3167.8 -65,37.52 -30.98,-68.61 52.05,-30.05 43.93,61.14"
         style="fill:#ffca59;fill-opacity:1;fill-rule:nonzero;stroke:none"
         id="path538" />
      <path
         d="m 2028.13,3271.52 -37.52,65 -61.14,-43.93 30.05,-52.05 68.61,30.98"
         style="fill:#ffca59;fill-opacity:1;fill-rule:nonzero;stroke:none"
         id="path540" />
      <path
         d="m 1965.76,3427.29 v 75.05 l -74.91,-7.47 v -60.1 l 74.91,-7.48"
         style="fill:#ffca59;fill-opacity:1;fill-rule:nonzero;stroke:none"
         id="path542" />
      <path
         d="m 1989.64,3593.38 37.52,65 -68.61,30.98 -30.05,-52.06 61.14,-43.92"
         style="fill:#ffca59;fill-opacity:1;fill-rule:nonzero;stroke:none"
         id="path544" />
      <path
         d="m 2093.36,3725.28 64.99,37.52 -43.93,61.14 -52.05,-30.05 30.99,-68.61"
         style="fill:#ffca59;fill-opacity:1;fill-rule:nonzero;stroke:none"
         id="path546" />
      <path
         d="m 1571.19,3760.84 c 1.3,49.23 42.21,88.04 91.39,86.74 49.23,-1.3 88.04,-42.21 86.74,-91.44 -1.3,-49.18 -42.21,-87.99 -91.44,-86.69 -49.18,1.3 -87.99,42.21 -86.69,91.39 z m -101.65,2.69 c -2.78,-105.31 80.36,-192.96 185.66,-195.73 105.34,-2.78 192.99,80.36 195.77,185.66 2.78,105.34 -80.36,192.99 -185.7,195.77 -105.3,2.78 -192.95,-80.36 -195.73,-185.7"
         style="fill:#e7e8e5;fill-opacity:1;fill-rule:nonzero;stroke:none"
         id="path548" />
      <path
         d="m 1628.41,3942.27 73.34,-1.93 -2.69,52.02 -65.22,1.72 -5.43,-51.81"
         style="fill:#e7e8e5;fill-opacity:1;fill-rule:nonzero;stroke:none"
         id="path550" />
      <path
         d="m 1767.35,3913.88 50.49,-53.23 34.88,38.69 -44.91,47.34 -40.46,-32.8"
         style="fill:#e7e8e5;fill-opacity:1;fill-rule:nonzero;stroke:none"
         id="path552" />
      <path
         d="m 1845.51,3795.56 -1.93,-73.34 52.02,2.69 1.72,65.23 -51.81,5.42"
         style="fill:#e7e8e5;fill-opacity:1;fill-rule:nonzero;stroke:none"
         id="path554" />
      <path
         d="m 1817.12,3656.63 -53.23,-50.49 38.68,-34.89 47.34,44.91 -32.79,40.47"
         style="fill:#e7e8e5;fill-opacity:1;fill-rule:nonzero;stroke:none"
         id="path556" />
      <path
         d="m 1698.8,3578.46 -73.34,1.93 2.69,-52.01 65.22,-1.73 5.43,51.81"
         style="fill:#e7e8e5;fill-opacity:1;fill-rule:nonzero;stroke:none"
         id="path558" />
      <path
         d="m 1559.86,3606.86 -50.49,53.22 -34.88,-38.68 44.9,-47.34 40.47,32.8"
         style="fill:#e7e8e5;fill-opacity:1;fill-rule:nonzero;stroke:none"
         id="path560" />
      <path
         d="m 1481.7,3725.17 1.93,73.34 -52.02,-2.69 -1.72,-65.22 51.81,-5.43"
         style="fill:#e7e8e5;fill-opacity:1;fill-rule:nonzero;stroke:none"
         id="path562" />
      <path
         d="m 1510.09,3864.11 53.23,50.49 -38.68,34.88 -47.35,-44.9 32.8,-40.47"
         style="fill:#e7e8e5;fill-opacity:1;fill-rule:nonzero;stroke:none"
         id="path564" />
      <path
         d="m 1663.07,3739.71 c -11.44,0.3 -20.43,9.77 -20.13,21.21 0.31,11.4 9.78,20.43 21.22,20.13 11.4,-0.3 20.43,-9.82 20.13,-21.22 -0.31,-11.44 -9.82,-20.42 -21.22,-20.12 z m 47.86,65.54 -62.54,18.55 -47.31,-44.92 15.22,-63.38 62.49,-18.55 47.36,44.88 -15.22,63.42"
         style="fill:#e7e8e5;fill-opacity:1;fill-rule:nonzero;stroke:none"
         id="path566" />
      <path
         d="m 2290.4,3935.3 h -7.5 v -20 h 7.5 z m 0,20 v 8.59 h 3.91 v 7.5 h -7.66 -3.75 v -16.09 z m 23.91,8.59 h 20 v 7.5 h -20 z m 40,0 h 20 v 7.5 h -20 z m 40,0 h 20 v 7.5 h -20 z m 40,0 h 20 v 7.5 h -20 z m 40,0 h 20 v 7.5 h -20 z m 40,0 h 20 v 7.5 h -20 z m 40,0 h 20 v 7.5 h -20 z m 40,0 h 20 v 7.5 h -20 z m 40,0 h 20 v 7.5 h -20 z m 40,0 h 20 v 7.5 h -20 z m 40,0 h 20 v 7.5 h -20 z m 40,0 h 20 v 7.5 h -20 z m 40,0 h 20 v 7.5 h -20 z m 40,0 h 20 v 7.5 h -20 z m 40,0 h 20 v 7.5 h -20 z m 40,0 h 20 v 7.5 h -20 z m 40,0 h 20 v 7.5 h -20 z m 40,0 h 20 v 7.5 h -20 z m 40,0 h 20 v 7.5 h -20 z m 40,0 h 20 v 7.5 h -20 z m 40,0 h 20 v 7.5 h -20 z m 40,0 h 20 v 7.5 h -20 z m 40,0 h 20 v 7.5 h -20 z m 40,0 h 20 v 7.5 h -20 z m 40,0 h 20 v 7.5 h -20 z m 40,0 h 20 v 7.5 h -20 z m 40,0 h 20 v 7.5 h -20 z m 40,0 h 20 v 7.5 h -20 z m 40,0 h 20 v 7.5 h -20 z m 29.67,-22.84 h 7.5 v 20 h -7.5 z m 0,-40 h 7.5 v 20 h -7.5 z m 0,-40 h 7.5 v 20 h -7.5 z m 0,-40 h 7.5 v 20 h -7.5 z m 0,-40 h 7.5 v 20 h -7.5 z"
         style="fill:#17282f;fill-opacity:1;fill-rule:nonzero;stroke:none"
         id="path568" />
      <path
         d="m 3452.77,3772.46 14.96,-25.9 14.95,25.9 z"
         style="fill:#17282f;fill-opacity:1;fill-rule:nonzero;stroke:none"
         id="path570" />
      <path
         d="m 6127.68,743.879 c 8.52,-36.199 17.51,-71.809 19.27,-108.957 -0.99,-1.82 -0.8,-8.563 0.29,-6.731 0.22,-5.98 9.33,-4.89 9.34,1.008 -0.1,3.852 -0.19,7.711 -0.38,11.442 21.29,26.437 52.21,43.179 77.19,66.148 20.21,18.602 34.66,40.75 42.31,67.332 20.73,71.43 1.3,147.117 26.23,218.359 21.48,61.44 60.03,114.84 92.65,170.5 34.42,58.86 59.83,120.71 62.37,189.65 2.03,52.79 -4.27,123.13 -44.47,162.68 -42.61,41.96 -95.44,10.52 -128.1,-26.91 -94.61,-108.58 -138.38,-245.8 -156.08,-386.11 -9.76,-77.66 -19.89,-155.778 -17.55,-234.169 1.32,-42.133 7.37,-83.32 16.93,-124.242"
         style="fill:#ff9e01;fill-opacity:1;fill-rule:nonzero;stroke:none"
         id="path572" />
      <path
         d="m 6146.54,606.41 c -4.9,73.391 -4.59,146.899 2.59,219.988 l -0.36,0.801 c -1.19,59.473 -5.92,118.699 -3.59,178.231 2.54,64.69 12.02,128.08 26.19,191.18 l 1.16,-0.19 c -11.67,-61.54 -18.44,-124.35 -20.7,-186.95 -1.2,-33.599 -0.97,-67.22 0.81,-100.79 0.58,-10.93 1.59,-21.93 2.31,-32.942 l 0.02,0.102 c 23.98,167.35 85.75,326.11 176.92,468.19 1.24,1.94 4.67,-0.13 3.46,-2.11 -65.66,-107.21 -114.07,-224.97 -144.01,-347.15 45.5,84.29 114.21,153.61 165.2,234.61 l 0.78,-0.48 c -45.81,-90.17 -121.47,-161.28 -169.71,-250.119 -8.36,-36.211 -15.21,-72.761 -20.31,-109.543 -7,-50.488 -10.29,-101.289 -10.97,-152.16 27.7,51.801 56.47,101.352 79.14,156.133 0.61,1.457 2.7,0.469 2.21,-0.992 -19.29,-56.91 -45.21,-118.207 -81.51,-166.739 -0.19,-36.019 0.87,-72.062 3,-108.031 5.66,-96.051 22.06,-190.808 29.64,-286.551 0.23,-2.878 -3.82,-3.218 -4.39,-0.468 -19.94,96.629 -31.32,197.582 -37.88,295.98"
         style="fill:#17282f;fill-opacity:1;fill-rule:nonzero;stroke:none"
         id="path574" />
      <path
         d="m 6248.53,1347.11 1.06,-0.48 c -17.54,-48.51 -27.45,-97.66 -40.13,-147.39 -0.57,-2.27 -3.86,-1.78 -3.62,0.59 5.16,50.45 23.17,100.78 42.69,147.28"
         style="fill:#17282f;fill-opacity:1;fill-rule:nonzero;stroke:none"
         id="path576" />
      <path
         d="m 5803.05,1143.8 c 11.37,-28.5 25.49,-56.08 40.35,-82.89 31.59,-57.37 64.54,-109.93 70.5,-176.73 2.67,-29.821 3.62,-59.789 12.7,-88.532 7.85,-24.867 20.61,-47.828 35.29,-69.296 34.23,-49.872 77.03,-92.852 108.76,-144.602 33.01,-53.789 57.36,-112.969 72.26,-174.25 0.79,-3.359 6.08,-2.461 5.29,0.891 l -0.2,0.769 0.31,0.711 c 5.03,143.219 -6.4,287.57 -50.09,424.777 -19.11,60 -42.67,119.672 -69.41,176.702 -23.4,49.75 -52.57,97.58 -93.65,134.75 -26.66,24.01 -84.48,69.52 -122.42,45.44 -18.22,-11.59 -16.86,-29.87 -9.69,-47.74"
         style="fill:#ff9e01;fill-opacity:1;fill-rule:nonzero;stroke:none"
         id="path578" />
      <path
         d="m 5947,819.102 c 24.56,-41.993 53.69,-81.082 83.23,-119.653 13.87,-18.097 27.93,-36.058 41.78,-54.187 6.54,-8.563 13.87,-17.094 19.88,-26.293 -3.79,15.062 -7.48,30.152 -11.32,45.191 -18.48,72.371 -36.25,145.371 -63.77,214.949 -26.91,68.012 -62.69,131.891 -99.45,194.961 -0.97,1.65 1.71,2.85 2.69,1.25 30.26,-49.77 60.98,-99.48 86.42,-151.949 14.22,-29.32 26.17,-59.473 36.69,-90.16 -12.38,65.789 -27.21,128.949 -48.84,192.639 l 0.87,0.4 c 26.39,-62.461 45.39,-132.691 50.67,-200.379 l -0.1,-0.32 c 6.21,-18.602 11.92,-37.383 17.24,-56.313 22.57,-80.117 42.38,-161.09 60.75,-242.347 -0.32,53.66 -3.69,106.339 -13.82,159.281 -0.23,1.207 1.58,1.488 1.87,0.316 13.31,-54.519 19.33,-111.886 13.83,-167.91 6.95,-30.887 13.7,-61.828 20.3,-92.769 14.08,-66.02 31.38,-133.219 39.61,-200.258 0.21,-1.742 -2.2,-2.102 -2.65,-0.449 -9.82,36.136 -15.75,73.597 -23.79,110.187 -8.06,36.691 -16.36,73.34 -24.9,109.93 -12.44,53.281 -25.47,106.429 -38.74,159.519 -8.87,19.473 -26.03,36.75 -38.87,53.071 -14.11,17.921 -28.21,35.839 -41.93,54.043 -25.55,33.91 -48.99,69.128 -68.92,106.648 l 1.27,0.602"
         style="fill:#17282f;fill-opacity:1;fill-rule:nonzero;stroke:none"
         id="path580" />
      <path
         d="m 5940.89,880.352 c 31.06,-39.872 59.26,-84 81.45,-129.422 l -0.98,-0.629 c -27.42,42.961 -54.37,86.25 -81.73,129.25 l 1.26,0.801"
         style="fill:#17282f;fill-opacity:1;fill-rule:nonzero;stroke:none"
         id="path582" />
      <path
         d="m 6550.6,1008 c -18.56,-31.969 -39.75,-70.359 -31.78,-108.738 5.05,-24.301 22.84,-44.032 26.05,-68.813 7.19,-54.711 -47.33,-90.859 -86.79,-116.711 -98.34,-64.527 -233.23,-122.058 -251.11,-253.828 -0.68,-4.672 -8.74,-3.5 -8.16,1.07 l 0.19,0.872 -0.48,0.777 c -12.73,66.762 -12.44,134.793 1.84,201.262 14.68,67.929 44.32,128.949 79.3,188.621 59.19,100.968 121.86,204.368 211.37,281.728 24.78,21.38 75.51,59.86 95.23,11.56 19.15,-46.94 -12.92,-98.83 -35.66,-137.8"
         style="fill:#ff4d00;fill-opacity:1;fill-rule:nonzero;stroke:none"
         id="path584" />
      <path
         d="m 6460.58,793.922 c -65.2,-70.594 -168.86,-110.16 -225,-189.231 33.27,121.188 88.31,230.161 172.93,324.821 2.17,2.429 -1.22,5.879 -3.6,3.597 -61.95,-59.55 -107.83,-129.148 -141.31,-204.668 15.06,53.918 36.11,104.918 60.85,155.618 0.94,1.91 -1.78,3.562 -2.88,1.691 -31.53,-53.738 -52.47,-114.078 -65.59,-174.93 -73.95,-179.039 -80.81,-389.019 -65.31,-577.73 0.22,-2.692 4.33,-2.77 4.25,0 -4.25,148.719 -1.84,300.031 33.8,445.269 0.74,3.032 1.57,6.02 2.34,9.039 61.06,85.114 164.28,124.563 230.65,205.391 l -1.13,1.133"
         style="fill:#17282f;fill-opacity:1;fill-rule:nonzero;stroke:none"
         id="path586" />
      <path
         d="m 6475.7,854.551 c -34.24,-31.41 -67.93,-63.531 -102.22,-94.91 l 0.51,-0.661 c 37.32,25.25 75.22,58.622 103.75,93.532 1.16,1.41 -0.65,3.308 -2.04,2.039"
         style="fill:#17282f;fill-opacity:1;fill-rule:nonzero;stroke:none"
         id="path588" />
      <path
         d="M 6481.11,990.609 C 6450.02,940.781 6417.42,894.051 6378.7,849.73 l 0.85,-0.851 c 41.57,40.031 78.5,88.461 103.39,140.652 0.58,1.231 -1.1,2.25 -1.83,1.078"
         style="fill:#17282f;fill-opacity:1;fill-rule:nonzero;stroke:none"
         id="path590" />
      <path
         d="m 6326.99,0 h -299.82 l 40.4,403.391 h 213.25 L 6326.99,0"
         style="fill:#33535f;fill-opacity:1;fill-rule:nonzero;stroke:none"
         id="path592" />
      <path
         d="m 6288.34,337.82 h -227.36 l 6.57,65.571 h 213.29 l 7.5,-65.571"
         style="fill:#17282f;fill-opacity:1;fill-rule:nonzero;stroke:none"
         id="path594" />
      <path
         d="m 6317.6,383.672 h -281.04 v 64.406 h 281.04 v -64.406"
         style="fill:#33535f;fill-opacity:1;fill-rule:nonzero;stroke:none"
         id="path596" />
      <text
         xml:space="preserve"
         style="font-size:99.9171px;fill:#ffffff;fill-opacity:1;stroke-width:8.32642"
         x="676.31061"
         y="-2492.8562"
         id="text11619"
         transform="scale(1,-1)"><tspan
           sodipodi:role="line"
           id="tspan11617"
           style="fill:#ffffff;fill-opacity:1;stroke-width:8.32642"
           x="676.31061"
           y="-2492.8562">Bootstrap5</tspan></text>
      <text
         xml:space="preserve"
         style="font-size:108.592px;fill:#ffffff;fill-opacity:1;stroke-width:9.04934"
         x="719.05878"
         y="-1670.6365"
         id="text12205"
         transform="scale(1,-1)"><tspan
           sodipodi:role="line"
           id="tspan12203"
           style="stroke-width:9.04934"
           x="719.05878"
           y="-1670.6365">Flask</tspan></text>
    </g>
  </g>
</svg>
